<?xml version="1.0" encoding="UTF-8"?>
<svg version="1.1" xmlns="http://www.w3.org/2000/svg" width="320" height="180">
<path d="M0 0 C105.6 0 211.2 0 320 0 C320 59.4 320 118.8 320 180 C214.4 180 108.8 180 0 180 C0 120.6 0 61.2 0 0 Z " fill="#027C3D" transform="translate(0,0)"/>
<path d="M0 0 C43.56 0 87.12 0 132 0 C132 43.56 132 87.12 132 132 C88.44 132 44.88 132 0 132 C0 88.44 0 44.88 0 0 Z " fill="#FBFBFB" transform="translate(176,26)"/>
<path d="M0 0 C105.6 0 211.2 0 320 0 C320 59.4 320 118.8 320 180 C214.4 180 108.8 180 0 180 C0 120.6 0 61.2 0 0 Z M2 14 C2 64.16 2 114.32 2 166 C106.28 166 210.56 166 318 166 C318 115.84 318 65.68 318 14 C213.72 14 109.44 14 2 14 Z " fill="#EAF5EE" transform="translate(0,0)"/>
<path d="M0 0 C105.6 0.33 211.2 0.66 320 1 C320 5.29 320 9.58 320 14 C214.4 14 108.8 14 0 14 C0 9.38 0 4.76 0 0 Z " fill="#FBFDFC" transform="translate(0,166)"/>
<path d="M0 0 C1.010625 0.28875 2.02125 0.5775 3.0625 0.875 C3.70058594 1.05675781 4.33867187 1.23851562 4.99609375 1.42578125 C6.87450712 1.96404005 8.74987519 2.51289445 10.625 3.0625 C13.41220511 3.83672364 16.15621911 4.48294893 19 5 C18.896875 5.763125 18.79375 6.52625 18.6875 7.3125 C18.790625 8.199375 18.89375 9.08625 19 10 C21.40858714 11.8624438 21.40858714 11.8624438 24 13 C23.42415568 15.38564077 22.77772405 17.66682784 22 20 C23.485 20.495 23.485 20.495 25 21 C25 21.66 25 22.32 25 23 C24.34 23.66 23.68 24.32 23 25 C22.57812196 26.90580868 22.57812196 26.90580868 22.4375 29 C22.22315216 31.37969847 22.07661332 32.84677336 21 35 C21.7734375 34.91878906 22.546875 34.83757812 23.34375 34.75390625 C31.65540555 34.24985783 31.65540555 34.24985783 35.2265625 36.2421875 C37.27092665 38.0678131 39.12447935 40.00137567 41 42 C42.82157361 43.65883937 44.65518118 45.30455113 46.5 46.9375 C48.00049946 48.29111322 49.50067938 49.64508116 51 51 C50.67 52.32 50.34 53.64 50 55 C48.35 55 46.7 55 45 55 C44.9175 54.21625 44.835 53.4325 44.75 52.625 C44.5025 51.75875 44.255 50.8925 44 50 C42.68596724 49.29605388 41.3479743 48.63654342 40 48 C39.21625 46.989375 38.4325 45.97875 37.625 44.9375 C35.26637035 41.80343232 35.26637035 41.80343232 31.9375 41 C28.93834667 41 27.48149025 41.37748714 25 43 C26.04285156 43.13792969 27.08570313 43.27585938 28.16015625 43.41796875 C31.75462989 44.4494894 32.99805943 45.98481065 34.87109375 49.17578125 C35.75081251 50.87568892 36.60569072 52.58864255 37.4375 54.3125 C38.10555664 55.59543945 38.10555664 55.59543945 38.78710938 56.90429688 C40.94493984 61.18349678 42.26688487 64.13002234 42 69 C40.35 68.67 38.7 68.34 37 68 C35 62 35 62 34.3046875 59.703125 C34.05976563 58.91421875 33.81484375 58.1253125 33.5625 57.3125 C33.33691406 56.56613281 33.11132812 55.81976563 32.87890625 55.05078125 C31.86991821 52.69647581 31.12666658 51.44845856 29 50 C25.35525258 50.24024862 22.90691321 51.49500047 19.875 53.4375 C9.58156711 59.28565727 -5.57577987 59.75680988 -17 57 C-17.07992187 57.75410156 -17.15984375 58.50820312 -17.2421875 59.28515625 C-18.37549846 63.34521357 -21.06664676 64.6776097 -24.3828125 67.05859375 C-26.30872448 68.94606327 -26.30872448 68.94606327 -25.98046875 71.8671875 C-24.87598463 75.39625627 -23.40622811 77.73605648 -21.1875 80.6875 C-20.50042969 81.61949219 -19.81335938 82.55148438 -19.10546875 83.51171875 C-17.13833069 86.03630675 -17.13833069 86.03630675 -14.73828125 87.64453125 C-14.16464844 88.09183594 -13.59101563 88.53914063 -13 89 C-13 89.99 -13 90.98 -13 92 C-14.98 92 -16.96 92 -19 92 C-19.1546875 91.0409375 -19.1546875 91.0409375 -19.3125 90.0625 C-19.539375 89.381875 -19.76625 88.70125 -20 88 C-20.99 87.67 -21.98 87.34 -23 87 C-23.70072857 85.33159865 -24.39457193 83.6596715 -25.0390625 81.96875 C-26.13627658 79.72079921 -27.48348857 78.19901224 -29.1875 76.375 C-31.2341306 74.10999442 -31.94124982 73.32312597 -32.5 70.25 C-32 68 -32 68 -30 65 C-31.48253267 65.61697319 -32.96095174 66.24383896 -34.4375 66.875 C-35.26121094 67.22304687 -36.08492187 67.57109375 -36.93359375 67.9296875 C-39.15746715 68.8244937 -39.15746715 68.8244937 -40 71 C-40.07181821 73.71760108 -40.09299506 76.40859388 -40.0625 79.125 C-40.05798828 79.87910156 -40.05347656 80.63320312 -40.04882812 81.41015625 C-40.03703499 83.27347127 -40.01909942 85.13674555 -40 87 C-39.360625 87.268125 -38.72125 87.53625 -38.0625 87.8125 C-36 89 -36 89 -35 92 C-37.31 92 -39.62 92 -42 92 C-42.309375 91.195625 -42.61875 90.39125 -42.9375 89.5625 C-43.76335345 87.10919595 -43.76335345 87.10919595 -45 86 C-45.17636282 82.60437677 -44.99281856 79.20884659 -44.875 75.8125 C-44.8646875 74.86568359 -44.854375 73.91886719 -44.84375 72.94335938 C-44.55798174 65.0682457 -44.55798174 65.0682457 -41.48828125 61.7734375 C-38.37412355 58.30239831 -38.3764413 56.40151778 -38.3125 51.8125 C-38.18012081 45.27018122 -38.18012081 45.27018122 -36 42 C-38.97 42.495 -38.97 42.495 -42 43 C-42 42.01 -42 41.02 -42 40 C-43.32 40.66 -44.64 41.32 -46 42 C-45.63788868 45.25900191 -44.89231898 46.10242829 -42.4375 48.4375 C-40 51 -40 51 -39.4375 53.625 C-40 56 -40 56 -41.8125 57.75 C-44 59 -44 59 -47 60 C-47.33 60.99 -47.66 61.98 -48 63 C-49.32 62.67 -50.64 62.34 -52 62 C-51.6875 59.625 -51.6875 59.625 -51 57 C-50.01 56.34 -49.02 55.68 -48 55 C-48 54.01 -48 53.02 -48 52 C-49.63260714 50.62517293 -51.30225062 49.29352333 -53 48 C-55.97365286 43.53952071 -55.86041402 39.22339837 -55 34 C-53.2874375 31.08681539 -52.16626772 30.61191811 -49 29 C-45.5625 28.75 -45.5625 28.75 -42 30 C-40.04874908 31.68889786 -38.35648554 33.44877102 -36.67578125 35.40625 C-34.74823055 37.23944507 -33.64406632 37.79139516 -31 38 C-30.01 37.34 -29.02 36.68 -28 36 C-25.95043945 35.85229492 -25.95043945 35.85229492 -23.61328125 35.98046875 C-22.75669922 36.00947266 -21.90011719 36.03847656 -21.01757812 36.06835938 C-19.23312685 36.14695254 -17.44916875 36.23783444 -15.66601562 36.34179688 C-9.17381761 36.53089002 -4.99139678 35.23512454 0 31 C3.04946475 27.2282936 4.67185376 23.64851182 6 19 C2.73539027 20.80412643 1.11070205 21.83394693 -1 25 C-2.65 24.67 -4.3 24.34 -6 24 C-7.13293038 21.17785008 -7.01943244 20.05608735 -6.00390625 17.125 C-5.29041016 15.578125 -5.29041016 15.578125 -4.5625 14 C-2.81703262 10.19516648 -2 8.25067146 -2 4 C-2 3.34 -2 2.68 -2 2 C-1.34 2 -0.68 2 0 2 C0 1.34 0 0.68 0 0 Z " fill="#121112" transform="translate(244,44)"/>
<path d="M0 0 C5.8830584 0.0580565 10.25439644 0.62799941 14.9375 4.3125 C17.48455353 6.98380004 18.80441739 8.76818716 19.125 12.48828125 C18.81351993 18.27986383 17.15257555 21.38481597 12.9375 25.3125 C9.064539 27.27223155 5.93511527 27.53222781 1.625 27.4375 C0.55636719 27.41945313 -0.51226562 27.40140625 -1.61328125 27.3828125 C-2.42152344 27.35960938 -3.22976562 27.33640625 -4.0625 27.3125 C-3.7325 27.6425 -3.4025 27.9725 -3.0625 28.3125 C-3.5575 29.7975 -3.5575 29.7975 -4.0625 31.3125 C-4.7225 31.3125 -5.3825 31.3125 -6.0625 31.3125 C-6.0625 31.9725 -6.0625 32.6325 -6.0625 33.3125 C-5.4025 33.3125 -4.7425 33.3125 -4.0625 33.3125 C-4.0625 33.9725 -4.0625 34.6325 -4.0625 35.3125 C-5.3825 35.3125 -6.7025 35.3125 -8.0625 35.3125 C-8.0625 37.9525 -8.0625 40.5925 -8.0625 43.3125 C-7.4025 43.6425 -6.7425 43.9725 -6.0625 44.3125 C-6.0625 46.2925 -6.0625 48.2725 -6.0625 50.3125 C-5.7325 46.3525 -5.4025 42.3925 -5.0625 38.3125 C-3.99 38.168125 -2.9175 38.02375 -1.8125 37.875 C1.64824684 37.4277047 1.64824684 37.4277047 3.8203125 36.80859375 C7.3251004 35.98736116 10.89397484 35.86268419 14.4765625 35.59375 C16.93852485 35.45480514 16.93852485 35.45480514 18.9375 34.3125 C21.9375 35.3125 21.9375 35.3125 23.125 37.375 C23.5271875 38.3340625 23.5271875 38.3340625 23.9375 39.3125 C24.2675 38.3225 24.5975 37.3325 24.9375 36.3125 C24.9375 36.9725 24.9375 37.6325 24.9375 38.3125 C25.9275 38.3125 26.9175 38.3125 27.9375 38.3125 C28.2675 36.9925 28.5975 35.6725 28.9375 34.3125 C36.95119863 34.65496575 36.95119863 34.65496575 40.5625 37.0625 C41.9375 39.3125 41.9375 39.3125 41.875 41.9375 C40.9375 44.3125 40.9375 44.3125 37.9375 46.3125 C36.9475 46.3125 35.9575 46.3125 34.9375 46.3125 C35.4325 48.7875 35.4325 48.7875 35.9375 51.3125 C34.803125 51.456875 33.66875 51.60125 32.5 51.75 C29.12972799 51.92421478 29.12972799 51.92421478 27.9375 53.3125 C25.26691149 53.45365161 22.61317762 53.35497107 19.9375 53.3125 C19.9375 52.6525 19.9375 51.9925 19.9375 51.3125 C19.133125 51.6425 18.32875 51.9725 17.5 52.3125 C11.57783708 53.97486152 5.90735736 53.71717232 -0.0625 52.3125 C-1.0525 52.3125 -2.0425 52.3125 -3.0625 52.3125 C-2.0725 51.3225 -2.0725 51.3225 -1.0625 50.3125 C-0.4199765 48.24375966 -0.4199765 48.24375966 -0.0625 46.3125 C-0.7225 46.3125 -1.3825 46.3125 -2.0625 46.3125 C-2.3925 47.9625 -2.7225 49.6125 -3.0625 51.3125 C-3.7225 51.3125 -4.3825 51.3125 -5.0625 51.3125 C-5.5575 52.3025 -5.5575 52.3025 -6.0625 53.3125 C-6.7225 53.3125 -7.3825 53.3125 -8.0625 53.3125 C-9.5475 53.8075 -9.5475 53.8075 -11.0625 54.3125 C-11.0625 53.6525 -11.0625 52.9925 -11.0625 52.3125 C-11.7225 52.3125 -12.3825 52.3125 -13.0625 52.3125 C-13.7225 51.3225 -14.3825 50.3325 -15.0625 49.3125 C-16.0525 49.3125 -17.0425 49.3125 -18.0625 49.3125 C-18.3925 48.3225 -18.7225 47.3325 -19.0625 46.3125 C-19.2790625 47.08980469 -19.495625 47.86710937 -19.71875 48.66796875 C-21.0625 51.3125 -21.0625 51.3125 -23.59375 52.67578125 C-24.5734375 52.98902344 -25.553125 53.30226562 -26.5625 53.625 C-27.5421875 53.95113281 -28.521875 54.27726562 -29.53125 54.61328125 C-32.0625 55.3125 -32.0625 55.3125 -34.0625 55.3125 C-34.0625 54.3225 -34.0625 53.3325 -34.0625 52.3125 C-34.7225 52.3125 -35.3825 52.3125 -36.0625 52.3125 C-36.0625 51.6525 -36.0625 50.9925 -36.0625 50.3125 C-36.660625 50.065 -37.25875 49.8175 -37.875 49.5625 C-40.34897521 48.14879988 -41.49620255 46.66194617 -43.0625 44.3125 C-43.3925 46.2925 -43.7225 48.2725 -44.0625 50.3125 C-45.0525 50.3125 -46.0425 50.3125 -47.0625 50.3125 C-47.3925 49.3225 -47.7225 48.3325 -48.0625 47.3125 C-48.3925 48.3025 -48.7225 49.2925 -49.0625 50.3125 C-50.3825 50.3125 -51.7025 50.3125 -53.0625 50.3125 C-53.7225 52.2925 -54.3825 54.2725 -55.0625 56.3125 C-55.619375 56.168125 -56.17625 56.02375 -56.75 55.875 C-59.17634195 55.28480872 -61.61156345 54.789071 -64.0625 54.3125 C-64.0625 53.6525 -64.0625 52.9925 -64.0625 52.3125 C-65.0525 52.3125 -66.0425 52.3125 -67.0625 52.3125 C-67.0625 51.6525 -67.0625 50.9925 -67.0625 50.3125 C-67.7225 50.3125 -68.3825 50.3125 -69.0625 50.3125 C-69.7225 50.9725 -70.3825 51.6325 -71.0625 52.3125 C-73.05071313 52.71014263 -75.05194339 53.05025349 -77.0625 53.3125 C-77.0625 53.9725 -77.0625 54.6325 -77.0625 55.3125 C-77.7225 55.3125 -78.3825 55.3125 -79.0625 55.3125 C-79.0625 54.6525 -79.0625 53.9925 -79.0625 53.3125 C-80.17625 53.126875 -80.17625 53.126875 -81.3125 52.9375 C-83.87325381 52.3555105 -85.75064698 51.50828604 -88.0625 50.3125 C-88.7225 50.3125 -89.3825 50.3125 -90.0625 50.3125 C-89.39751617 45.92360675 -87.87492323 42.3313515 -86.0625 38.3125 C-85.0725 38.3125 -84.0825 38.3125 -83.0625 38.3125 C-82.794375 38.951875 -82.52625 39.59125 -82.25 40.25 C-81.17582248 42.64381686 -81.17582248 42.64381686 -78.0625 43.3125 C-77.7325 41.6625 -77.4025 40.0125 -77.0625 38.3125 C-73.69529613 39.70582574 -72.0765476 41.2914286 -70.0625 44.3125 C-69.7325 42.3325 -69.4025 40.3525 -69.0625 38.3125 C-68.0725 38.3125 -67.0825 38.3125 -66.0625 38.3125 C-65.7325 40.9525 -65.4025 43.5925 -65.0625 46.3125 C-64.7325 43.6725 -64.4025 41.0325 -64.0625 38.3125 C-63.0725 38.3125 -62.0825 38.3125 -61.0625 38.3125 C-60.7325 39.6325 -60.4025 40.9525 -60.0625 42.3125 C-58.7425 40.9925 -57.4225 39.6725 -56.0625 38.3125 C-55.0725 38.8075 -55.0725 38.8075 -54.0625 39.3125 C-54.578125 39.89 -55.09375 40.4675 -55.625 41.0625 C-57.28449513 43.17595877 -57.28449513 43.17595877 -56.9375 45.5 C-56.64875 46.098125 -56.36 46.69625 -56.0625 47.3125 C-55.0725 47.6425 -54.0825 47.9725 -53.0625 48.3125 C-52.5675 43.3625 -52.5675 43.3625 -52.0625 38.3125 C-51.0725 38.3125 -50.0825 38.3125 -49.0625 38.3125 C-48.5675 37.3225 -48.5675 37.3225 -48.0625 36.3125 C-46.0625 35.97916667 -44.0625 35.64583333 -42.0625 35.3125 C-41.5675 34.3225 -41.5675 34.3225 -41.0625 33.3125 C-35.76115649 33.90153817 -33.70309542 34.67190458 -30.0625 38.3125 C-27.53858101 38.05774194 -27.53858101 38.05774194 -25.0625 37.3125 C-24.5675 36.3225 -24.5675 36.3225 -24.0625 35.3125 C-26.3725 35.3125 -28.6825 35.3125 -31.0625 35.3125 C-30.7325 33.9925 -30.4025 32.6725 -30.0625 31.3125 C-28.0825 30.9825 -26.1025 30.6525 -24.0625 30.3125 C-24.5575 28.8275 -24.5575 28.8275 -25.0625 27.3125 C-26.0525 27.3125 -27.0425 27.3125 -28.0625 27.3125 C-27.08253892 24.59876162 -26.21283127 22.49623822 -24.375 20.25 C-22.85329884 18.45452577 -22.85329884 18.45452577 -23.2578125 16.54296875 C-24.31489841 13.61289083 -25.89788617 11.27642619 -27.625 8.6875 C-31.0625 3.52779175 -31.0625 3.52779175 -31.0625 1.3125 C-28.80078125 1 -28.80078125 1 -26.0625 1.3125 C-24.04296875 3.5 -24.04296875 3.5 -22.25 6.3125 C-21.64542969 7.240625 -21.04085937 8.16875 -20.41796875 9.125 C-19.97066406 9.846875 -19.52335937 10.56875 -19.0625 11.3125 C-18.69898437 10.590625 -18.33546875 9.86875 -17.9609375 9.125 C-16.46265479 6.35893961 -14.996205 3.79619784 -13.0625 1.3125 C-9.75 0.75 -9.75 0.75 -7.0625 1.3125 C-5.22960552 -0.52039448 -2.46646175 0.05380341 0 0 Z " fill="#0A7F42" transform="translate(118.0625,62.6875)"/>
<path d="M0 0 C104.28 0 208.56 0 316 0 C316 50.16 316 100.32 316 152 C211.72 152 107.44 152 0 152 C0 101.84 0 51.68 0 0 Z M1 1 C-3.40301233 76.4854939 -3.40301233 76.4854939 2 151 C104.3 151 206.6 151 312 151 C312 150.01 312 149.02 312 148 C243.195 147.505 243.195 147.505 173 147 C173.33 146.01 173.66 145.02 174 144 C217.56 144 261.12 144 306 144 C306 100.77 306 57.54 306 13 C307.32 13 308.64 13 310 13 C310.33 9.04 310.66 5.08 311 1 C208.7 1 106.4 1 1 1 Z " fill="#067138" transform="translate(2,14)"/>
<path d="M0 0 C1.65 0 3.3 0 5 0 C5.33 6.6 5.66 13.2 6 20 C7.98 19.34 9.96 18.68 12 18 C12 17.01 12 16.02 12 15 C12.66 15 13.32 15 14 15 C14.33 14.01 14.66 13.02 15 12 C15.66 11.67 16.32 11.34 17 11 C17.598125 9.88625 18.19625 8.7725 18.8125 7.625 C20.77244332 4.16669422 22.13320595 2.39862763 26 1 C30.4310157 0.39700245 34.85390815 -0.03063304 38.9765625 1.94921875 C42.18324064 4.45295513 44.06550175 7.07510735 45 11 C45.48240893 15.42208189 45.27444499 17.49685084 43.125 21.4375 C42.42375 22.283125 41.7225 23.12875 41 24 C40.34 24 39.68 24 39 24 C38.505 25.485 38.505 25.485 38 27 C36.37548581 27.33569297 34.75037083 27.6684796 33.125 28 C32.22007813 28.185625 31.31515625 28.37125 30.3828125 28.5625 C28 29 28 29 26 29 C25.87625 30.1446875 25.87625 30.1446875 25.75 31.3125 C24.84730645 34.54715191 23.86406539 35.35099265 21 37 C20.34 37 19.68 37 19 37 C18.67 36.34 18.34 35.68 18 35 C16.515 34.505 16.515 34.505 15 34 C15.804375 33.855625 16.60875 33.71125 17.4375 33.5625 C19.92103706 33.25864751 19.92103706 33.25864751 21 32 C19.35 31.67 17.7 31.34 16 31 C16 29.68 16 28.36 16 27 C10.39 27 4.78 27 -1 27 C-1.02682299 22.68745917 -1.04675244 18.37508293 -1.0625 14.0625 C-1.07087891 12.83080078 -1.07925781 11.59910156 -1.08789062 10.33007812 C-1.09111328 9.16025391 -1.09433594 7.99042969 -1.09765625 6.78515625 C-1.10289307 5.70113525 -1.10812988 4.61711426 -1.11352539 3.50024414 C-1 1 -1 1 0 0 Z " fill="#E4F9ED" transform="translate(40,63)"/>
<path d="M0 0 C43.56 0 87.12 0 132 0 C132 43.56 132 87.12 132 132 C88.44 132 44.88 132 0 132 C0 88.44 0 44.88 0 0 Z M2 2 C0.73958318 4.52083364 0.87696236 6.23982914 0.87974548 9.06192017 C0.87836799 10.13103449 0.87699049 11.20014881 0.87557125 12.30166054 C0.87916936 13.48424635 0.88276747 14.66683216 0.88647461 15.88525391 C0.88635407 17.14434256 0.88623354 18.40343121 0.88610935 19.70067406 C0.88673376 23.1129477 0.89168777 26.52516095 0.89871979 29.93742371 C0.90440592 33.13691106 0.90468243 36.33639686 0.90539551 39.53588867 C0.91064719 48.89893042 0.92460829 58.26196565 0.9375 67.625 C0.958125 88.53875 0.97875 109.4525 1 131 C43.9 131 86.8 131 131 131 C130.67 110.54 130.34 90.08 130 69 C129.94158507 56.8730606 129.8975419 44.75115236 129.9375 32.625 C129.94319346 29.77604317 129.94718875 26.92708467 129.95117188 24.078125 C129.96139266 17.385396 129.97803598 10.69270071 130 4 C129.34 4 128.68 4 128 4 C128 3.34 128 2.68 128 2 C127.3852393 2 126.77047859 2 126.13708878 2 C85.42472585 2 44.71236293 2 4 2 C4.33 3.32 4.66 4.64 5 6 C4.34 6 3.68 6 3 6 C2.67 4.68 2.34 3.36 2 2 Z " fill="#C6EAD6" transform="translate(176,26)"/>
<path d="M0 0 C5.84947861 0.56607858 7.89194425 0.89194425 12 5 C13.99958364 5.04080783 16.00045254 5.04254356 18 5 C18 5.99 18 6.98 18 8 C16.7934375 7.9690625 16.7934375 7.9690625 15.5625 7.9375 C13.06645115 7.70366379 13.06645115 7.70366379 12 9 C11.95936168 10.66617115 11.957279 12.33388095 12 14 C13.32 14.33 14.64 14.66 16 15 C16 13.68 16 12.36 16 11 C16.66 11 17.32 11 18 11 C18 12.98 18 14.96 18 17 C13.78121808 17.19622241 10.82989106 16.80230168 7 15 C7 15.66 7 16.32 7 17 C3.74456771 16.65120368 2.98126893 15.97866739 0.75 13.4375 C0.1725 12.633125 -0.405 11.82875 -1 11 C-1.33 12.98 -1.66 14.96 -2 17 C-2.99 17 -3.98 17 -5 17 C-5.495 15.515 -5.495 15.515 -6 14 C-6.33 14.99 -6.66 15.98 -7 17 C-8.32 17 -9.64 17 -11 17 C-11.66 18.98 -12.32 20.96 -13 23 C-13.556875 22.855625 -14.11375 22.71125 -14.6875 22.5625 C-17.11384195 21.97230872 -19.54906345 21.476571 -22 21 C-22 20.34 -22 19.68 -22 19 C-22.99 19 -23.98 19 -25 19 C-25 18.34 -25 17.68 -25 17 C-25.66 17 -26.32 17 -27 17 C-27.66 17.66 -28.32 18.32 -29 19 C-30.98821313 19.39764263 -32.98944339 19.73775349 -35 20 C-35 20.66 -35 21.32 -35 22 C-35.66 22 -36.32 22 -37 22 C-37 21.34 -37 20.68 -37 20 C-37.7425 19.87625 -38.485 19.7525 -39.25 19.625 C-41.81075381 19.0430105 -43.68814698 18.19578604 -46 17 C-46.66 17 -47.32 17 -48 17 C-47.33501617 12.61110675 -45.81242323 9.0188515 -44 5 C-43.01 5 -42.02 5 -41 5 C-40.731875 5.639375 -40.46375 6.27875 -40.1875 6.9375 C-39.11332248 9.33131686 -39.11332248 9.33131686 -36 10 C-35.67 8.35 -35.34 6.7 -35 5 C-31.63279613 6.39332574 -30.0140476 7.9789286 -28 11 C-27.67 9.02 -27.34 7.04 -27 5 C-26.01 5 -25.02 5 -24 5 C-23.67 7.64 -23.34 10.28 -23 13 C-22.67 10.36 -22.34 7.72 -22 5 C-21.01 5 -20.02 5 -19 5 C-18.67 6.32 -18.34 7.64 -18 9 C-16.68 7.68 -15.36 6.36 -14 5 C-13.34 5.33 -12.68 5.66 -12 6 C-12.7734375 6.86625 -12.7734375 6.86625 -13.5625 7.75 C-15.22199513 9.86345877 -15.22199513 9.86345877 -14.875 12.1875 C-14.58625 12.785625 -14.2975 13.38375 -14 14 C-13.01 14.33 -12.02 14.66 -11 15 C-10.67 11.7 -10.34 8.4 -10 5 C-9.01 5 -8.02 5 -7 5 C-6.67 4.34 -6.34 3.68 -6 3 C-2.9375 2.375 -2.9375 2.375 0 2 C0 1.34 0 0.68 0 0 Z " fill="#147240" transform="translate(76,96)"/>
<path d="M0 0 C1.9375 0.1875 1.9375 0.1875 4 1 C5.25 3.0625 5.25 3.0625 6 5 C6.33 4.01 6.66 3.02 7 2 C7 2.66 7 3.32 7 4 C7.99 4 8.98 4 10 4 C10.33 2.68 10.66 1.36 11 0 C19.01369863 0.34246575 19.01369863 0.34246575 22.625 2.75 C24 5 24 5 23.9375 7.625 C23 10 23 10 20 12 C19.01 12 18.02 12 17 12 C17.495 14.475 17.495 14.475 18 17 C16.2984375 17.2165625 16.2984375 17.2165625 14.5625 17.4375 C11.19222799 17.61171478 11.19222799 17.61171478 10 19 C7.32941149 19.14115161 4.67567762 19.04247107 2 19 C2 18.34 2 17.68 2 17 C1.195625 17.33 0.39125 17.66 -0.4375 18 C-6.35966292 19.66236152 -12.03014264 19.40467232 -18 18 C-18.99 18 -19.98 18 -21 18 C-19.69254251 16.31295807 -18.35827971 14.64639965 -17 13 C-16.67 13 -16.34 13 -16 13 C-16 9.88772805 -16.45627049 7.05847848 -17 4 C-13.60337304 1.96860324 -10.73344364 1.66196328 -6.8125 1.4375 C-3.08992543 1.53210522 -3.08992543 1.53210522 0 0 Z " fill="#197945" transform="translate(136,97)"/>
<path d="M0 0 C0.33 0 0.66 0 1 0 C1 6.6 1 13.2 1 20 C4.96 20 8.92 20 13 20 C13 19.01 13 18.02 13 17 C12.34 16.67 11.68 16.34 11 16 C11.99 16 12.98 16 14 16 C14 11.05 14 6.1 14 1 C14.66 0.67 15.32 0.34 16 0 C16 8.58 16 17.16 16 26 C21.61 26 27.22 26 33 26 C33 27.32 33 28.64 33 30 C34.65 30 36.3 30 38 30 C38 30.99 38 31.98 38 33 C37.34 33 36.68 33 36 33 C36 33.99 36 34.98 36 36 C36.495 35.01 36.495 35.01 37 34 C43.32432432 31.77477477 43.32432432 31.77477477 47 33 C47 34.98 47 36.96 47 39 C46.67 38.34 46.34 37.68 46 37 C45.01 37 44.02 37 43 37 C43 40.63 43 44.26 43 48 C38 46 38 46 37.0625 44.125 C36.9868288 41.55217933 37.67831949 40.17688554 39 38 C37.35 39.32 35.7 40.64 34 42 C34 40.35 34 38.7 34 37 C33.01 37 32.02 37 31 37 C31 39.64 31 42.28 31 45 C30.01 45.495 30.01 45.495 29 46 C29 43.03 29 40.06 29 37 C28.01 37 27.02 37 26 37 C26 39.31 26 41.62 26 44 C25.236875 43.21625 24.47375 42.4325 23.6875 41.625 C21.09108195 38.92742283 21.09108195 38.92742283 18 37 C17.67 38.65 17.34 40.3 17 42 C15.68 42 14.36 42 13 42 C12.67 40.35 12.34 38.7 12 37 C11.01 37 10.02 37 9 37 C8.505 35.515 8.505 35.515 8 34 C8.99 33.01 9.98 32.02 11 31 C10.34 30.34 9.68 29.68 9 29 C10.65 29 12.3 29 14 29 C14 28.34 14 27.68 14 27 C13.34 26.67 12.68 26.34 12 26 C12 24.35 12 22.7 12 21 C8.04 21 4.08 21 0 21 C0 14.07 0 7.14 0 0 Z " fill="#07733B" transform="translate(23,64)"/>
<path d="M0 0 C4.17477489 1.4648333 6.05109432 3.35366116 8.88671875 6.65625 C10.81426945 8.48944507 11.91843368 9.04139516 14.5625 9.25 C15.5525 8.59 16.5425 7.93 17.5625 7.25 C19.39398766 7.45349863 21.2250021 7.66865773 23.046875 7.9453125 C30.71497981 8.87405811 37.87344884 9.40805883 44.5625 5.25 C45.2225 5.58 45.8825 5.91 46.5625 6.25 C45.881875 6.8378125 45.881875 6.8378125 45.1875 7.4375 C43.28980543 9.55415932 42.5986081 11.62519282 41.5625 14.25 C38.85370665 15.60439668 36.55316732 15.31501451 33.5625 15.25 C33.5625 14.26 33.5625 13.27 33.5625 12.25 C24.1347639 11.72896022 24.1347639 11.72896022 15.5625 15.25 C14.5725 15.58 13.5825 15.91 12.5625 16.25 C11.35367904 18.25016466 11.35367904 18.25016466 10.5625 20.25 C9.5 18.4375 9.5 18.4375 8.5625 16.25 C8.8925 15.26 9.2225 14.27 9.5625 13.25 C7.5825 13.58 5.6025 13.91 3.5625 14.25 C3.5625 13.26 3.5625 12.27 3.5625 11.25 C1.5825 12.24 1.5825 12.24 -0.4375 13.25 C-0.07538868 16.50900191 0.67018102 17.35242829 3.125 19.6875 C5.5625 22.25 5.5625 22.25 6.125 24.875 C5.5625 27.25 5.5625 27.25 3.75 29 C1.5625 30.25 1.5625 30.25 -1.4375 31.25 C-1.9325 32.735 -1.9325 32.735 -2.4375 34.25 C-3.7575 33.92 -5.0775 33.59 -6.4375 33.25 C-6.125 30.875 -6.125 30.875 -5.4375 28.25 C-4.4475 27.59 -3.4575 26.93 -2.4375 26.25 C-2.4375 25.26 -2.4375 24.27 -2.4375 23.25 C-4.07010714 21.87517293 -5.73975062 20.54352333 -7.4375 19.25 C-10.41115286 14.78952071 -10.29791402 10.47339837 -9.4375 5.25 C-7.19582331 1.43675638 -4.38766334 0.31910279 0 0 Z " fill="#131313" transform="translate(198.4375,72.75)"/>
<path d="M0 0 C14.89189189 0 14.89189189 0 19 4 C21.75682506 7.11254443 22.22354251 9.40018685 22 13.4375 C21.25197156 18.31594632 19.59412671 20.65092738 16 24 C11 26 11 26 0 26 C0 17.42 0 8.84 0 0 Z " fill="#EAFEF6" transform="translate(115,64)"/>
<path d="M0 0 C1.010625 0.28875 2.02125 0.5775 3.0625 0.875 C3.70058594 1.05675781 4.33867187 1.23851562 4.99609375 1.42578125 C6.87450712 1.96404005 8.74987519 2.51289445 10.625 3.0625 C13.41220511 3.83672364 16.15621911 4.48294893 19 5 C18.896875 5.763125 18.79375 6.52625 18.6875 7.3125 C18.790625 8.199375 18.89375 9.08625 19 10 C21.40858714 11.8624438 21.40858714 11.8624438 24 13 C23.42415568 15.38564077 22.77772405 17.66682784 22 20 C22.99 20.33 23.98 20.66 25 21 C25 21.66 25 22.32 25 23 C24.34 23.66 23.68 24.32 23 25 C22.71365426 27.00442018 22.43076704 29.01101294 22.24609375 31.02734375 C22 33 22 33 21 36 C20.01 36.495 20.01 36.495 19 37 C19 39.31 19 41.62 19 44 C18.46375 43.2575 17.9275 42.515 17.375 41.75 C14.84735261 38.82325039 12.28172632 37.01378661 9 35 C9.6493062 31.49374651 11.17925367 29.03457721 13 26 C14.00961611 22.87085868 14.10560054 20.0256414 14.0625 16.75 C14.05347656 15.85796875 14.04445313 14.9659375 14.03515625 14.046875 C14.02355469 13.37140625 14.01195312 12.6959375 14 12 C11.69 11.67 9.38 11.34 7 11 C7 11.66 7 12.32 7 13 C5.35 13 3.7 13 2 13 C1.01 15.64 0.02 18.28 -1 21 C-1.66 20.34 -2.32 19.68 -3 19 C-2.54803755 17.39402675 -2.08817673 15.79027492 -1.625 14.1875 C-1.36976563 13.29417969 -1.11453125 12.40085937 -0.8515625 11.48046875 C0 9 0 9 2 6 C0.68 5.34 -0.64 4.68 -2 4 C-2 3.34 -2 2.68 -2 2 C-1.34 2 -0.68 2 0 2 C0 1.34 0 0.68 0 0 Z " fill="#131212" transform="translate(244,44)"/>
<path d="M0 0 C1.65 0 3.3 0 5 0 C5.33 6.6 5.66 13.2 6 20 C7.98 19.34 9.96 18.68 12 18 C12 17.01 12 16.02 12 15 C12.66 15 13.32 15 14 15 C14.33 14.01 14.66 13.02 15 12 C15.99 11.67 16.98 11.34 18 11 C18.10957031 11.60328125 18.21914063 12.2065625 18.33203125 12.828125 C19.40696928 19.04021951 19.40696928 19.04021951 23 24 C28.32342299 26.72663129 33.29489877 25.83434287 39 25 C37.24135754 27.1793144 36.30604 27.93686419 33.51953125 28.51171875 C32.62621094 28.56972656 31.73289063 28.62773438 30.8125 28.6875 C29.91144531 28.75324219 29.01039062 28.81898437 28.08203125 28.88671875 C27.39496094 28.92410156 26.70789063 28.96148437 26 29 C25.87625 30.1446875 25.87625 30.1446875 25.75 31.3125 C24.84730645 34.54715191 23.86406539 35.35099265 21 37 C20.34 37 19.68 37 19 37 C18.67 36.34 18.34 35.68 18 35 C16.515 34.505 16.515 34.505 15 34 C15.804375 33.855625 16.60875 33.71125 17.4375 33.5625 C19.92103706 33.25864751 19.92103706 33.25864751 21 32 C19.35 31.67 17.7 31.34 16 31 C16 29.68 16 28.36 16 27 C10.39 27 4.78 27 -1 27 C-1.02682299 22.68745917 -1.04675244 18.37508293 -1.0625 14.0625 C-1.07087891 12.83080078 -1.07925781 11.59910156 -1.08789062 10.33007812 C-1.09111328 9.16025391 -1.09433594 7.99042969 -1.09765625 6.78515625 C-1.10289307 5.70113525 -1.10812988 4.61711426 -1.11352539 3.50024414 C-1 1 -1 1 0 0 Z " fill="#067B3D" transform="translate(40,63)"/>
<path d="M0 0 C0.99 1.98 0.99 1.98 2 4 C-41.56 4 -85.12 4 -130 4 C-130 47.23 -130 90.46 -130 135 C-130.33 135 -130.66 135 -131 135 C-131.02332856 117.80661031 -131.04097896 100.61322553 -131.05181217 83.41982365 C-131.05697522 75.437185 -131.06401809 67.45455617 -131.07543945 59.47192383 C-131.08538602 52.51676201 -131.09185336 45.56160731 -131.09408849 38.60643858 C-131.09539565 34.92148073 -131.09848179 31.23654322 -131.10573006 27.55159187 C-131.1137434 23.44462292 -131.11399116 19.33768963 -131.11352539 15.23071289 C-131.11712067 14.00001068 -131.12071594 12.76930847 -131.12442017 11.50131226 C-131.1230455 10.38926926 -131.12167084 9.27722626 -131.12025452 8.13148499 C-131.12117631 7.15899339 -131.1220981 6.18650179 -131.12304783 5.18454075 C-131 3 -131 3 -130 2 C-128.33232281 1.89386344 -126.66016232 1.85758492 -124.98913574 1.84851074 C-123.36110268 1.83599525 -123.36110268 1.83599525 -121.70018005 1.82322693 C-120.4991011 1.81904251 -119.29802216 1.81485809 -118.06054688 1.81054688 C-116.13147225 1.7978169 -114.20239762 1.78508666 -112.27332306 1.7723465 C-110.19374122 1.75957748 -108.11415979 1.74926757 -106.03456116 1.73963928 C-101.70753087 1.71946928 -97.38056881 1.69181054 -93.05358887 1.66296387 C-83.08708551 1.59767656 -73.12053154 1.54230338 -63.15396881 1.48697662 C-54.02217379 1.43618251 -44.89040346 1.38332965 -35.75866938 1.32245111 C-31.45290818 1.29403284 -27.14715521 1.2704618 -22.84134674 1.25052643 C-20.8101443 1.24038398 -18.77897074 1.22799887 -16.74778748 1.21458435 C-14.26515369 1.19820143 -11.78249272 1.18542241 -9.29981995 1.17677307 C-7.67178688 1.16425758 -7.67178688 1.16425758 -6.01086426 1.15148926 C-5.06179451 1.14633553 -4.11272476 1.14118179 -3.13489532 1.13587189 C-1.01688251 1.23713827 -1.01688251 1.23713827 0 0 Z " fill="#0B6839" transform="translate(306,22)"/>
<path d="M0 0 C5.84947861 0.56607858 7.89194425 0.89194425 12 5 C13.99958364 5.04080783 16.00045254 5.04254356 18 5 C18 5.99 18 6.98 18 8 C16.7934375 7.9690625 16.7934375 7.9690625 15.5625 7.9375 C13.06645115 7.70366379 13.06645115 7.70366379 12 9 C11.95936168 10.66617115 11.957279 12.33388095 12 14 C13.32 14.33 14.64 14.66 16 15 C16 13.68 16 12.36 16 11 C16.66 11 17.32 11 18 11 C18 12.98 18 14.96 18 17 C13.78121808 17.19622241 10.82989106 16.80230168 7 15 C7 15.66 7 16.32 7 17 C3.74456771 16.65120368 2.98126893 15.97866739 0.75 13.4375 C0.1725 12.633125 -0.405 11.82875 -1 11 C-1.33 12.98 -1.66 14.96 -2 17 C-2.99 17 -3.98 17 -5 17 C-5.33 16.01 -5.66 15.02 -6 14 C-6.33 14.99 -6.66 15.98 -7 17 C-7.99 17 -8.98 17 -10 17 C-10 13.04 -10 9.08 -10 5 C-9.01 5 -8.02 5 -7 5 C-6.67 4.34 -6.34 3.68 -6 3 C-2.9375 2.375 -2.9375 2.375 0 2 C0 1.34 0 0.68 0 0 Z " fill="#5AA27C" transform="translate(76,96)"/>
<path d="M0 0 C5.8743932 0.83919903 5.8743932 0.83919903 7.9375 3.5625 C8.92773472 7.43541803 9.56563129 10.99217178 8.0546875 14.76953125 C6.59785593 17.10759311 5.54686497 17.69271168 2.9375 18.5625 C0 19 0 19 -3.0625 18.5625 C-5.875 16.125 -5.875 16.125 -8.0625 13.5625 C-8.3925 13.2325 -8.7225 12.9025 -9.0625 12.5625 C-9.63149756 8.48468417 -9.18719723 6.77292658 -7.0625 3.1875 C-3.58025231 0.14053327 -3.58025231 0.14053327 0 0 Z " fill="#0F7C44" transform="translate(71.0625,67.4375)"/>
<path d="M0 0 C8.01369863 0.34246575 8.01369863 0.34246575 11.625 2.75 C13 5 13 5 12.9375 7.625 C12 10 12 10 9 12 C8.01 12 7.02 12 6 12 C6.33 13.65 6.66 15.3 7 17 C5.2984375 17.2165625 5.2984375 17.2165625 3.5625 17.4375 C0.19222799 17.61171478 0.19222799 17.61171478 -1 19 C-3.67058851 19.14115161 -6.32432238 19.04247107 -9 19 C-9 14.38 -9 9.76 -9 5 C-8.34 5 -7.68 5 -7 5 C-6.67 7.64 -6.34 10.28 -6 13 C-4.68 13.33 -3.36 13.66 -2 14 C-2.02320313 13.32453125 -2.04640625 12.6490625 -2.0703125 11.953125 C-2.08835938 11.06109375 -2.10640625 10.1690625 -2.125 9.25 C-2.14820313 8.36828125 -2.17140625 7.4865625 -2.1953125 6.578125 C-1.99139502 3.8864142 -1.36551721 2.30095026 0 0 Z " fill="#1E6D43" transform="translate(147,97)"/>
<path d="M0 0 C0.33 1.65 0.66 3.3 1 5 C-2.63 5 -6.26 5 -10 5 C-10 5.99 -10 6.98 -10 8 C-9.38511719 8.25394531 -8.77023438 8.50789063 -8.13671875 8.76953125 C-7.32847656 9.11371094 -6.52023438 9.45789063 -5.6875 9.8125 C-4.88699219 10.14894531 -4.08648437 10.48539063 -3.26171875 10.83203125 C-0.99138496 12.00444887 0.41159399 13.00946588 2 15 C2.4375 17.9375 2.4375 17.9375 2 21 C0.1329009 23.30275556 -1.35647741 24.67823871 -4 26 C-11.46666667 26.35555556 -11.46666667 26.35555556 -15 24 C-15 22.68 -15 21.36 -15 20 C-11.37 20.33 -7.74 20.66 -4 21 C-3.67 19.68 -3.34 18.36 -3 17 C-4.17369141 16.47212891 -4.17369141 16.47212891 -5.37109375 15.93359375 C-13.64423627 11.89714332 -13.64423627 11.89714332 -15.4375 7.375 C-15 4 -15 4 -13.75 1.5625 C-9.38446313 -0.91791868 -4.90769501 -0.30461555 0 0 Z " fill="#DAF6E4" transform="translate(156,64)"/>
<path d="M0 0 C0 1.65 0 3.3 0 5 C0.66 5.33 1.32 5.66 2 6 C2 7.98 2 9.96 2 12 C2.33 8.04 2.66 4.08 3 0 C4.98 0 6.96 0 9 0 C9.66 0.66 10.32 1.32 11 2 C10.835 2.94875 10.67 3.8975 10.5 4.875 C9.96700496 8.20621901 10.20060177 9.24797917 12 12 C9.00667261 11.0022242 8.05233685 10.2477975 6 8 C5.67 9.65 5.34 11.3 5 13 C4.34 13 3.68 13 3 13 C2.67 13.66 2.34 14.32 2 15 C1.34 15 0.68 15 0 15 C-0.99 15.33 -1.98 15.66 -3 16 C-3 15.34 -3 14.68 -3 14 C-3.66 14 -4.32 14 -5 14 C-7.69227123 11.30772877 -8.90452101 9.68199275 -9.4375 5.875 C-9 3 -9 3 -7.875 1.125 C-5.21965017 -0.4682099 -3.03210482 -0.20214032 0 0 Z " fill="#247C4B" transform="translate(110,101)"/>
<path d="M0 0 C2.26171875 -0.3125 2.26171875 -0.3125 5 0 C7.01953125 2.1875 7.01953125 2.1875 8.8125 5 C9.41707031 5.928125 10.02164063 6.85625 10.64453125 7.8125 C11.09183594 8.534375 11.53914063 9.25625 12 10 C12.37511719 9.278125 12.75023438 8.55625 13.13671875 7.8125 C13.64847656 6.884375 14.16023438 5.95625 14.6875 5 C15.18636719 4.071875 15.68523437 3.14375 16.19921875 2.1875 C18 0 18 0 20.70703125 -0.3125 C21.46371094 -0.209375 22.22039062 -0.10625 23 0 C21.2851719 4.87321205 18.69148004 9.14293038 16.0625 13.5625 C15.61970703 14.31724609 15.17691406 15.07199219 14.72070312 15.84960938 C10.06270099 23.72864429 10.06270099 23.72864429 8 26 C5.3125 26.25 5.3125 26.25 3 26 C3.97996108 23.28626162 4.84966873 21.18373822 6.6875 18.9375 C8.20920116 17.14202577 8.20920116 17.14202577 7.8046875 15.23046875 C6.74760159 12.30039083 5.16461383 9.96392619 3.4375 7.375 C0 2.21529175 0 2.21529175 0 0 Z " fill="#DEF6E9" transform="translate(87,64)"/>
<path d="M0 0 C8.15789474 0 8.15789474 0 11 2 C13.4915904 5.7373856 13.45793285 7.57331583 13 12 C11.5625 14.9375 11.5625 14.9375 9 17 C5.87789286 17.41914691 3.17392665 17.23337696 0 17 C0 11.39 0 5.78 0 0 Z " fill="#07793C" transform="translate(119,68)"/>
<path d="M0 0 C1.65 0 3.3 0 5 0 C5 6.93 5 13.86 5 21 C8.96 21 12.92 21 17 21 C17 22.65 17 24.3 17 26 C11.39 26 5.78 26 0 26 C0 17.42 0 8.84 0 0 Z " fill="#CCEAD9" transform="translate(39,64)"/>
<path d="M0 0 C1.65 0 3.3 0 5 0 C5 6.93 5 13.86 5 21 C8.96 21 12.92 21 17 21 C17 22.65 17 24.3 17 26 C11.39 26 5.78 26 0 26 C0 17.42 0 8.84 0 0 Z " fill="#C9EBDB" transform="translate(18,64)"/>
<path d="M0 0 C3.23729655 1.81812958 5.47455325 4.30879034 8 7 C9.82157361 8.65883937 11.65518118 10.30455113 13.5 11.9375 C15.00049946 13.29111322 16.50067938 14.64508116 18 16 C17.67 17.32 17.34 18.64 17 20 C15.35 20 13.7 20 12 20 C11.9175 19.21625 11.835 18.4325 11.75 17.625 C11.5025 16.75875 11.255 15.8925 11 15 C9.68596724 14.29605388 8.3479743 13.63654342 7 13 C6.236875 11.989375 5.47375 10.97875 4.6875 9.9375 C2.21926799 6.68716875 2.21926799 6.68716875 -1.6875 6.125 C-5.93296589 5.95283351 -5.93296589 5.95283351 -10 7 C-10.99 6.01 -11.98 5.02 -13 4 C-13.99 4.495 -13.99 4.495 -15 5 C-14.625 3.0625 -14.625 3.0625 -14 1 C-9.7210662 -1.1394669 -4.62381392 -0.69473972 0 0 Z " fill="#1E1D1E" transform="translate(277,79)"/>
<path d="M0 0 C0.99 0 1.98 0 3 0 C3.268125 0.639375 3.53625 1.27875 3.8125 1.9375 C4.88667752 4.33131686 4.88667752 4.33131686 8 5 C8.33 4.01 8.66 3.02 9 2 C9 5.3 9 8.6 9 12 C9.66 12 10.32 12 11 12 C11 9.36 11 6.72 11 4 C15.875 8.75 15.875 8.75 17 11 C15 14 15 14 11.875 14.6875 C10.92625 14.790625 9.9775 14.89375 9 15 C9 15.66 9 16.32 9 17 C8.34 17 7.68 17 7 17 C7 16.34 7 15.68 7 15 C6.2575 14.87625 5.515 14.7525 4.75 14.625 C2.18924619 14.0430105 0.31185302 13.19578604 -2 12 C-2.66 12 -3.32 12 -4 12 C-3.33501617 7.61110675 -1.81242323 4.0188515 0 0 Z " fill="#167944" transform="translate(32,101)"/>
<path d="M0 0 C2.12764296 0.95377098 3.76284462 1.75007988 5.37890625 3.453125 C7.69174661 5.66007628 10.34156829 6.60604812 13.2578125 7.83984375 C15 9 15 9 15.8671875 11.00390625 C15.91101563 11.66261719 15.95484375 12.32132813 16 13 C14 15 14 15 11.125 15.375 C7.37431801 14.92491816 6.33511483 13.87398748 4 11 C1.25068173 11.68732957 -0.53418821 12.35560222 -2.22265625 14.69140625 C-3.20324656 16.43116325 -4.10688055 18.2137611 -5 20 C-7.31 19.67 -9.62 19.34 -12 19 C-11.01 18.34 -10.02 17.68 -9 17 C-2.55894784 12.44413384 -1.74040395 7.33455951 0 0 Z " fill="#06783C" transform="translate(138,71)"/>
<path d="M0 0 C6.98629919 -0.50604984 11.20200116 -0.0333905 17 4 C17 3.34 17 2.68 17 2 C16.34 2 15.68 2 15 2 C15 1.34 15 0.68 15 0 C17.97 0 20.94 0 24 0 C24 0.33 24 0.66 24 1 C22.35 1 20.7 1 19 1 C19.66128906 1.96421875 20.32257813 2.9284375 21.00390625 3.921875 C21.85743227 5.19747433 22.71026074 6.47354061 23.5625 7.75 C24.21895508 8.70132813 24.21895508 8.70132813 24.88867188 9.671875 C28.07563774 14.48996513 28.07563774 14.48996513 27.68920898 17.09570312 C26.90144503 19.27230916 25.86956657 20.88675246 24.5 22.75 C24.0565625 23.36359375 23.613125 23.9771875 23.15625 24.609375 C22.7746875 25.06828125 22.393125 25.5271875 22 26 C21.67 26 21.34 26 21 26 C21 24.02 21 22.04 21 20 C22.32 20 23.64 20 25 20 C24.67 17.69 24.34 15.38 24 13 C22.68 13 21.36 13 20 13 C19.01 15.97 18.02 18.94 17 22 C16.34 22 15.68 22 15 22 C15.165 21.484375 15.33 20.96875 15.5 20.4375 C16.71773038 14.50106442 16.27300427 10.14329243 13 5 C9.52961294 1.12918367 4.90071191 1.30367659 0 1 C0 0.67 0 0.34 0 0 Z " fill="#197649" transform="translate(68,63)"/>
<path d="M0 0 C5.84947861 0.56607858 7.89194425 0.89194425 12 5 C13.99958364 5.04080783 16.00045254 5.04254356 18 5 C18 5.99 18 6.98 18 8 C16.7934375 7.9690625 16.7934375 7.9690625 15.5625 7.9375 C13.06645115 7.70366379 13.06645115 7.70366379 12 9 C11.95936168 10.66617115 11.957279 12.33388095 12 14 C13.32 14.33 14.64 14.66 16 15 C16 13.68 16 12.36 16 11 C16.66 11 17.32 11 18 11 C18 12.98 18 14.96 18 17 C13.78121808 17.19622241 10.82989106 16.80230168 7 15 C6.67 15.66 6.34 16.32 6 17 C6 13.04 6 9.08 6 5 C5.34 5 4.68 5 4 5 C4 7.31 4 9.62 4 12 C2.4375 10.8125 2.4375 10.8125 1 9 C1.3125 6.3125 1.3125 6.3125 2 4 C0.35 3.67 -1.3 3.34 -3 3 C-2.01 2.67 -1.02 2.34 0 2 C0 1.34 0 0.68 0 0 Z " fill="#0A8042" transform="translate(76,96)"/>
<path d="M0 0 C3.39476522 1.64594678 4.43955438 3.63389057 6.0625 7 C6.50027145 11.71446175 5.72262644 15.65895488 2.8125 19.4375 C-1.47622427 23.43381125 -4.96156824 24.26448028 -10.75 24.125 C-12.21373047 24.09792969 -12.21373047 24.09792969 -13.70703125 24.0703125 C-14.44308594 24.04710938 -15.17914063 24.02390625 -15.9375 24 C-15.9375 23.67 -15.9375 23.34 -15.9375 23 C-12.4725 22.505 -12.4725 22.505 -8.9375 22 C-9.9275 21.01 -10.9175 20.02 -11.9375 19 C-11.32261719 18.97421875 -10.70773438 18.9484375 -10.07421875 18.921875 C-5.11637428 18.66368084 -5.11637428 18.66368084 -0.875 16.375 C0.41872147 13.09757227 0.37980339 10.49033727 0.0625 7 C-1.77083333 3.83333333 -1.77083333 3.83333333 -4.9375 2 C-1.9375 0 -1.9375 0 0 0 Z " fill="#E7FCF1" transform="translate(130.9375,66)"/>
<path d="M0 0 C0.66 0.33 1.32 0.66 2 1 C1.54625 1.391875 1.0925 1.78375 0.625 2.1875 C-1.27269457 4.30415932 -1.9638919 6.37519282 -3 9 C-5.70879335 10.35439668 -8.00933268 10.06501451 -11 10 C-11 9.01 -11 8.02 -11 7 C-20.4277361 6.47896022 -20.4277361 6.47896022 -29 10 C-29.99 10.33 -30.98 10.66 -32 11 C-33.20882096 13.00016466 -33.20882096 13.00016466 -34 15 C-34.33 14.34 -34.66 13.68 -35 13 C-33.16433487 8.41083718 -31.00668313 4.9382343 -27 2 C-23.5 2.1875 -23.5 2.1875 -21.4453125 2.58984375 C-13.90537021 3.85453056 -6.5790563 4.08968365 0 0 Z " fill="#4F4F4F" transform="translate(243,78)"/>
<path d="M0 0 C43.89 0 87.78 0 133 0 C132.67 0.99 132.34 1.98 132 3 C130.35 3 128.7 3 127 3 C127 2.34 127 1.68 127 1 C64.135 1.495 64.135 1.495 0 2 C0 1.34 0 0.68 0 0 Z " fill="#0D6B38" transform="translate(176,158)"/>
<path d="M0 0 C0.33 0.66 0.66 1.32 1 2 C2.65 2 4.3 2 6 2 C5.67 2.99 5.34 3.98 5 5 C4.89848031 7.270093 4.81772935 9.54114771 4.75 11.8125 C4.36231861 18.15109079 3.03536741 20.1575591 -1 25 C-1.74168907 29.66054265 -1.92896155 34.28563004 -2 39 C-2.33 39 -2.66 39 -3 39 C-3.07347656 37.51886719 -3.07347656 37.51886719 -3.1484375 36.0078125 C-3.22320312 34.72648437 -3.29796875 33.44515625 -3.375 32.125 C-3.44460937 30.84882812 -3.51421875 29.57265625 -3.5859375 28.2578125 C-3.67241106 24.91938301 -3.67241106 24.91938301 -6 23 C-6 21.0625 -6 21.0625 -5 19 C-1.9375 17.25 -1.9375 17.25 1 16 C0.73781251 11.5428126 0.42288711 9.48477302 -2.5625 6.0625 C-3.366875 5.381875 -4.17125 4.70125 -5 4 C-4.67 3.01 -4.34 2.02 -4 1 C-2 0 -2 0 0 0 Z " fill="#ECECEC" transform="translate(202,84)"/>
<path d="M0 0 C0.33 0 0.66 0 1 0 C1 6.6 1 13.2 1 20 C4.96 20 8.92 20 13 20 C13 19.01 13 18.02 13 17 C12.34 16.67 11.68 16.34 11 16 C11.99 16 12.98 16 14 16 C14 11.05 14 6.1 14 1 C14.66 0.67 15.32 0.34 16 0 C16.14263396 4.11172748 16.28504491 8.22346261 16.42724609 12.33520508 C16.47568681 13.7349468 16.52418926 15.1346864 16.57275391 16.53442383 C16.64241373 18.54247489 16.7118356 20.55053419 16.78125 22.55859375 C16.82314453 23.76829834 16.86503906 24.97800293 16.90820312 26.22436523 C17.02303483 29.69649733 16.60243999 30.89527253 15 34 C14.67 33.34 14.34 32.68 14 32 C13.01 34.475 13.01 34.475 12 37 C11.01 37 10.02 37 9 37 C8.505 35.515 8.505 35.515 8 34 C8.99 33.01 9.98 32.02 11 31 C10.34 30.34 9.68 29.68 9 29 C10.65 29 12.3 29 14 29 C14 28.34 14 27.68 14 27 C13.34 26.67 12.68 26.34 12 26 C12 24.35 12 22.7 12 21 C8.04 21 4.08 21 0 21 C0 14.07 0 7.14 0 0 Z " fill="#0C6C37" transform="translate(23,64)"/>
<path d="M0 0 C0.66 0 1.32 0 2 0 C2 1.32 2 2.64 2 4 C-40.9 4 -83.8 4 -128 4 C-128 3.67 -128 3.34 -128 3 C-65.135 2.505 -65.135 2.505 -1 2 C-0.67 1.34 -0.34 0.68 0 0 Z " fill="#EEFEF9" transform="translate(305,153)"/>
<path d="M0 0 C3 1 3 1 4.25 2.6875 C5.23749311 5.73227042 4.7002014 7.91911384 4 11 C3.34 11 2.68 11 2 11 C1.67 11.99 1.34 12.98 1 14 C0.01 13.67 -0.98 13.34 -2 13 C-3.05270463 15.63106761 -3.05270463 15.63106761 -3 17 C-3.33 17.66 -3.66 18.32 -4 19 C-4.99 18.67 -5.98 18.34 -7 18 C-9.10032332 17.86437186 -9.10032332 17.86437186 -11.21875 18.98828125 C-14.47671981 20.17341353 -17.04120532 20.23194713 -20.5 20.1875 C-21.6034375 20.18105469 -22.706875 20.17460938 -23.84375 20.16796875 C-26.67226083 20.01744156 -29.24692555 19.64204162 -32 19 C-32 18.67 -32 18.34 -32 18 C-30.865625 18.05800781 -29.73125 18.11601563 -28.5625 18.17578125 C-17.86835357 18.83470439 -17.86835357 18.83470439 -8.4375 14.48828125 C-5.2567826 11.19520155 0 4.81203608 0 0 Z " fill="#141414" transform="translate(251,62)"/>
<path d="M0 0 C6.16223827 0.25505953 6.16223827 0.25505953 8.60546875 2.58984375 C9.95252531 4.71863477 11.03067664 6.88290417 12.109375 9.16015625 C12.64820313 10.15789062 13.18703125 11.155625 13.7421875 12.18359375 C18.50308519 21.15179638 18.50308519 21.15179638 18.109375 26.16015625 C16.459375 25.83015625 14.809375 25.50015625 13.109375 25.16015625 C11.109375 19.16015625 11.109375 19.16015625 10.4140625 16.8984375 C8.9606682 12.27052409 7.59935357 8.65013482 4.109375 5.16015625 C2.44320385 5.11951793 0.77549405 5.11743525 -0.890625 5.16015625 C-0.230625 4.50015625 0.429375 3.84015625 1.109375 3.16015625 C-0.210625 2.50015625 -1.530625 1.84015625 -2.890625 1.16015625 C-1.890625 0.16015625 -1.890625 0.16015625 0 0 Z " fill="#1A191A" transform="translate(267.890625,86.83984375)"/>
<path d="M0 0 C4.49740035 1.31174177 4.49740035 1.31174177 6 3.875 C5.875 6.9375 5.875 6.9375 5 9.875 C2 11.875 2 11.875 -1.625 11.625 C-2.73875 11.3775 -3.8525 11.13 -5 10.875 C-6.39935013 8.07629973 -6.25265405 5.97001208 -6 2.875 C-4.27343801 -0.09852344 -3.45187057 -0.14382794 0 0 Z " fill="#B9EAD0" transform="translate(130,101.125)"/>
<path d="M0 0 C0.33 0 0.66 0 1 0 C1 2.64 1 5.28 1 8 C9.415 7.505 9.415 7.505 18 7 C18 7.66 18 8.32 18 9 C13.05 9.33 8.1 9.66 3 10 C3.99476062 13.9790425 4.30632425 14.42344058 7 17 C7 17.66 7 18.32 7 19 C4.69 19 2.38 19 0 19 C0 22.96 0 26.92 0 31 C-0.66 31.33 -1.32 31.66 -2 32 C-1.979375 30.865625 -1.95875 29.73125 -1.9375 28.5625 C-1.58422523 25.18424326 -1.58422523 25.18424326 -3 24 C-3.14115161 21.32941149 -3.04247107 18.67567762 -3 16 C-1.68 16 -0.36 16 1 16 C1 15.34 1 14.68 1 14 C0.34 14 -0.32 14 -1 14 C-0.7525 13.0409375 -0.7525 13.0409375 -0.5 12.0625 C0.15932515 8.02413348 0.08003779 4.08192742 0 0 Z " fill="#086E36" transform="translate(113,82)"/>
<path d="M0 0 C4.93532738 0.10072097 7.20612849 0.79566782 10.6875 4.375 C11.25984375 5.00277344 11.8321875 5.63054687 12.421875 6.27734375 C14.11766307 8.12843915 15.92562199 9.58942295 18 11 C17.54625 11.598125 17.0925 12.19625 16.625 12.8125 C15.36704087 14.50590652 14.17015276 16.24477086 13 18 C12.67 17.01 12.34 16.02 12 15 C12.33 14.34 12.66 13.68 13 13 C11.02 13.33 9.04 13.66 7 14 C6.67 12.68 6.34 11.36 6 10 C6.99 10 7.98 10 9 10 C9 9.34 9 8.68 9 8 C8.34 8 7.68 8 7 8 C7 7.01 7 6.02 7 5 C5.35 5.33 3.7 5.66 2 6 C2 5.34 2 4.68 2 4 C0.02 4.99 -1.96 5.98 -4 7 C-2.79618552 4.50638429 -1.54571278 2.31856917 0 0 Z " fill="#242424" transform="translate(195,73)"/>
<path d="M0 0 C3 2 3 2 4 5 C4.24823483 9.7164618 3.9222268 13.59788915 2.8125 18.1875 C1.89504095 22.12646318 1.89504095 22.12646318 3.4375 25.875 C3.953125 26.57625 4.46875 27.2775 5 28 C4.6875 30.3125 4.6875 30.3125 4 32 C3.443125 31.071875 2.88625 30.14375 2.3125 29.1875 C0.04212145 26.0580593 -1.59508103 24.70245949 -5 23 C-4.3506938 19.49374651 -2.82074633 17.03457721 -1 14 C0.00961611 10.87085868 0.10560054 8.0256414 0.0625 4.75 C0.05347656 3.85796875 0.04445313 2.9659375 0.03515625 2.046875 C0.02355469 1.37140625 0.01195312 0.6959375 0 0 Z " fill="#636263" transform="translate(258,56)"/>
<path d="M0 0 C0.99 0 1.98 0 3 0 C2.43815289 5.89939466 0.05654321 9.34363169 -3.5 13.9375 C-5 15 -5 15 -7.1875 14.6875 C-7.785625 14.460625 -8.38375 14.23375 -9 14 C-9 13.34 -9 12.68 -9 12 C-9.66 12 -10.32 12 -11 12 C-11 9 -11 6 -11 3 C-10.34 3 -9.68 3 -9 3 C-8.67 3.66 -8.34 4.32 -8 5 C-6.68 5 -5.36 5 -4 5 C-2.64172029 3.35360035 -1.30745749 1.68704193 0 0 Z " fill="#F7F7F7" transform="translate(247,63)"/>
<path d="M0 0 C1.11375 0.33 2.2275 0.66 3.375 1 C6.69459717 2.088643 6.69459717 2.088643 9 2 C9 2.66 9 3.32 9 4 C7.68 4 6.36 4 5 4 C5 4.66 5 5.32 5 6 C5.99 6.33 6.98 6.66 8 7 C8 7.33 8 7.66 8 8 C8.928125 8.1546875 8.928125 8.1546875 9.875 8.3125 C12 9 12 9 14 12 C11.69 11.67 9.38 11.34 7 11 C7 11.66 7 12.32 7 13 C5.35 13 3.7 13 2 13 C1.01 15.64 0.02 18.28 -1 21 C-1.66 20.34 -2.32 19.68 -3 19 C-2.54803755 17.39402675 -2.08817673 15.79027492 -1.625 14.1875 C-1.36976563 13.29417969 -1.11453125 12.40085937 -0.8515625 11.48046875 C0 9 0 9 2 6 C0.68 5.34 -0.64 4.68 -2 4 C-2 3.34 -2 2.68 -2 2 C-1.34 2 -0.68 2 0 2 C0 1.34 0 0.68 0 0 Z " fill="#2D2C2C" transform="translate(244,44)"/>
<path d="M0 0 C2.71089465 2.38537384 5.11785104 4.9091867 7 8 C6.67 8.99 6.34 9.98 6 11 C5.67 10.34 5.34 9.68 5 9 C4.34 9 3.68 9 3 9 C2.67 10.65 2.34 12.3 2 14 C0 11 0 11 -1.625 7.375 C-2.91203326 5.04163817 -3.47803355 4.17298888 -6.0390625 3.32421875 C-8.49974196 2.99520218 -8.49974196 2.99520218 -12 3 C-7.57807995 -0.3901387 -5.59160886 -1.79353492 0 0 Z " fill="#F2F2F2" transform="translate(279,85)"/>
<path d="M0 0 C4.75880624 2.5723277 7.27599472 4.82798417 9 10 C9.2295082 16.54098361 9.2295082 16.54098361 8 19 C6.68 19 5.36 19 4 19 C3.89042969 18.15695313 3.78085938 17.31390625 3.66796875 16.4453125 C3.50941406 15.34960938 3.35085937 14.25390625 3.1875 13.125 C3.03667969 12.03445312 2.88585937 10.94390625 2.73046875 9.8203125 C2.25334259 6.68761154 2.25334259 6.68761154 -1 5 C-2.65549531 4.61500109 -4.3222433 4.27206865 -6 4 C-6 3.67 -6 3.34 -6 3 C-4.02 2.67 -2.04 2.34 0 2 C0 1.34 0 0.68 0 0 Z " fill="#EEFBF7" transform="translate(76,64)"/>
<path d="M0 0 C1.65 0 3.3 0 5 0 C5.33 6.6 5.66 13.2 6 20 C7.98 19.34 9.96 18.68 12 18 C12 17.01 12 16.02 12 15 C12.66 15 13.32 15 14 15 C14.33 14.01 14.66 13.02 15 12 C15.99 11.67 16.98 11.34 18 11 C18 14.96 18 18.92 18 23 C11.07 22.505 11.07 22.505 4 22 C4 15.07 4 8.14 4 1 C2.68 0.67 1.36 0.34 0 0 Z " fill="#107343" transform="translate(40,63)"/>
<path d="M0 0 C2.31 0 4.62 0 7 0 C7.76173392 4.3164922 8.16063604 7.74433453 7 12 C4.69 12 2.38 12 0 12 C0 8.04 0 4.08 0 0 Z " fill="#D5F8E4" transform="translate(18,101)"/>
<path d="M0 0 C1.32 0 2.64 0 4 0 C5.96484375 2.484375 5.96484375 2.484375 7.9375 5.75 C10.01778259 9.17440156 11.61407639 11.69126111 14.75390625 14.203125 C15.49511719 14.79609375 16.23632812 15.3890625 17 16 C17 16.99 17 17.98 17 19 C15.02 19 13.04 19 11 19 C10.8453125 18.0409375 10.8453125 18.0409375 10.6875 17.0625 C10.460625 16.381875 10.23375 15.70125 10 15 C9.01 14.67 8.02 14.34 7 14 C6.2460825 12.29549086 5.49934221 10.58639444 4.828125 8.84765625 C3.65000149 6.21910711 1.82772759 4.20587813 0 2 C0 1.34 0 0.68 0 0 Z " fill="#161616" transform="translate(214,117)"/>
<path d="M0 0 C0 0.66 0 1.32 0 2 C-0.969375 2.309375 -1.93875 2.61875 -2.9375 2.9375 C-5.84065792 3.69523342 -5.84065792 3.69523342 -7 5 C-7.04092937 7.33297433 -7.04241723 9.66705225 -7 12 C-7.99 12.495 -7.99 12.495 -9 13 C-9.33 12.01 -9.66 11.02 -10 10 C-10.2165625 10.77730469 -10.433125 11.55460937 -10.65625 12.35546875 C-12 15 -12 15 -14.53125 16.36328125 C-15.5109375 16.67652344 -16.490625 16.98976563 -17.5 17.3125 C-18.96953125 17.80169922 -18.96953125 17.80169922 -20.46875 18.30078125 C-23 19 -23 19 -25 19 C-25 18.01 -25 17.02 -25 16 C-25.66 16 -26.32 16 -27 16 C-26.67 14.68 -26.34 13.36 -26 12 C-20.06 12.99 -20.06 12.99 -14 14 C-13.67 13.01 -13.34 12.02 -13 11 C-12.525625 10.38125 -12.05125 9.7625 -11.5625 9.125 C-9.86582467 7.04550565 -9.86582467 7.04550565 -9.125 4.375 C-8 2 -8 2 -5.5625 0.6875 C-3 0 -3 0 0 0 Z " fill="#0A743B" transform="translate(109,99)"/>
<path d="M0 0 C0.33 1.65 0.66 3.3 1 5 C-2.63 5 -6.26 5 -10 5 C-10.33 6.98 -10.66 8.96 -11 11 C-11.99 11 -12.98 11 -14 11 C-15.42440318 4.82758621 -15.42440318 4.82758621 -13.75 1.5625 C-9.38446313 -0.91791868 -4.90769501 -0.30461555 0 0 Z " fill="#DCF5E6" transform="translate(156,64)"/>
<path d="M0 0 C0.99 0.66 1.98 1.32 3 2 C3.6875 5.625 3.6875 5.625 4 9 C6.97 9 9.94 9 13 9 C13.33 9.99 13.66 10.98 14 12 C8.47514038 13.84161987 2.62087356 13.32255848 -3 12 C-3.99 12 -4.98 12 -6 12 C-4.69254251 10.31295807 -3.35827971 8.64639965 -2 7 C-1.67 7 -1.34 7 -1 7 C-1 6.01 -1 5.02 -1 4 C-0.6937566 2.66018514 -0.36548445 1.32488113 0 0 Z M14 9 C14.99 9.33 15.98 9.66 17 10 C16.01 10.33 15.02 10.66 14 11 C14 10.34 14 9.68 14 9 Z " fill="#157C44" transform="translate(121,103)"/>
<path d="M0 0 C0.66 0 1.32 0 2 0 C1.7834375 0.62648437 1.566875 1.25296875 1.34375 1.8984375 C1.0653125 2.71570312 0.786875 3.53296875 0.5 4.375 C0.2215625 5.18710937 -0.056875 5.99921875 -0.34375 6.8359375 C-1.09673305 8.94209242 -1.09673305 8.94209242 -1 11 C-0.34 11 0.32 11 1 11 C1.66 10.34 2.32 9.68 3 9 C3 13.24645065 1.18249194 15.38524772 -1 19 C-2.65 18.67 -4.3 18.34 -6 18 C-7.12150295 15.18604713 -7.00062999 14.00200428 -6.07421875 11.0546875 C-5.61660156 10.00539063 -5.15898437 8.95609375 -4.6875 7.875 C-4.23761719 6.82054687 -3.78773438 5.76609375 -3.32421875 4.6796875 C-2 2 -2 2 0 0 Z " fill="#201F20" transform="translate(244,50)"/>
<path d="M0 0 C1.98 0 3.96 0 6 0 C6.66 0.66 7.32 1.32 8 2 C7.835 2.94875 7.67 3.8975 7.5 4.875 C6.96700496 8.20621901 7.20060177 9.24797917 9 12 C6.00667261 11.0022242 5.05233685 10.2477975 3 8 C3 9.32 3 10.64 3 12 C2.01 12 1.02 12 0 12 C0 8.04 0 4.08 0 0 Z " fill="#9FCFB6" transform="translate(113,101)"/>
<path d="M0 0 C0.66 0.33 1.32 0.66 2 1 C2.625 3.5625 2.625 3.5625 3 6 C3.33 4.35 3.66 2.7 4 1 C4.66 1.66 5.32 2.32 6 3 C5.75482171 6.30990692 5.46888205 9.0898172 3.9375 12.0625 C2.6410943 14.74173845 2.86673646 17.06820212 3 20 C2.34 20.33 1.68 20.66 1 21 C0.34 20.67 -0.32 20.34 -1 20 C-0.98839844 19.09636719 -0.97679688 18.19273438 -0.96484375 17.26171875 C-0.95582031 16.08222656 -0.94679688 14.90273437 -0.9375 13.6875 C-0.92589844 12.51574219 -0.91429688 11.34398438 -0.90234375 10.13671875 C-0.85100102 6.96940805 -0.85100102 6.96940805 -2 4 C-1.34 4 -0.68 4 0 4 C0 2.68 0 1.36 0 0 Z " fill="#1C7646" transform="translate(26,96)"/>
<path d="M0 0 C0.66 0.33 1.32 0.66 2 1 C1.22092044 4.43301724 0.37574553 7.75410038 -1 11 C-3.6875 12.625 -3.6875 12.625 -6 13 C-5.67 14.32 -5.34 15.64 -5 17 C-5.99 17 -6.98 17 -8 17 C-8.433125 18.423125 -8.433125 18.423125 -8.875 19.875 C-10 23 -10 23 -12 25 C-14.125 24.625 -14.125 24.625 -16 24 C-15.44570312 23.51660156 -14.89140625 23.03320312 -14.3203125 22.53515625 C-11.22525363 19.15351786 -9.13386098 15.40893956 -6.875 11.4375 C-5.99805249 9.91498617 -5.12047299 8.39283614 -4.2421875 6.87109375 C-3.8591748 6.20005615 -3.47616211 5.52901855 -3.08154297 4.83764648 C-2.11178153 3.18992768 -1.06053898 1.59080847 0 0 Z " fill="#187549" transform="translate(109,66)"/>
<path d="M0 0 C0.33 0 0.66 0 1 0 C1 2.97 1 5.94 1 9 C1.99 9 2.98 9 4 9 C4 6.69 4 4.38 4 2 C6.96404505 4.80804268 9.44499019 7.18315774 11 11 C7.50028624 12.65264261 5.69357814 13.18722155 2 12 C1.67 12.33 1.34 12.66 1 13 C0.34 13 -0.32 13 -1 13 C-1 12.34 -1 11.68 -1 11 C-1.66 10.67 -2.32 10.34 -3 10 C-2.690625 9.46375 -2.38125 8.9275 -2.0625 8.375 C-0.82172561 5.6015043 -0.4090325 2.99957163 0 0 Z " fill="#0B6F39" transform="translate(70,104)"/>
<path d="M0 0 C3.68802044 1.22934015 4.72356973 2.93859378 7 6 C7.33 4.02 7.66 2.04 8 0 C8.66 0 9.32 0 10 0 C10 3.96 10 7.92 10 12 C6.23312136 10.11656068 5.20578354 9.30867531 3 6 C2.67 7.98 2.34 9.96 2 12 C1.34 12 0.68 12 0 12 C0 8.04 0 4.08 0 0 Z " fill="#ADE0C4" transform="translate(72,101)"/>
<path d="M0 0 C6.98629919 -0.50604984 11.20200116 -0.0333905 17 4 C17 3.34 17 2.68 17 2 C16.34 2 15.68 2 15 2 C15 1.34 15 0.68 15 0 C17.97 0 20.94 0 24 0 C24 0.33 24 0.66 24 1 C22.35 1 20.7 1 19 1 C19.99 2.98 20.98 4.96 22 7 C19.94766315 9.2477975 18.99332739 10.0022242 16 11 C15.5875 10.071875 15.175 9.14375 14.75 8.1875 C12.61455295 4.28659614 12.61455295 4.28659614 9 2 C6.00850023 1.47208828 3.03048049 1.18778618 0 1 C0 0.67 0 0.34 0 0 Z " fill="#298054" transform="translate(68,63)"/>
<path d="M0 0 C0.66 0.33 1.32 0.66 2 1 C1.34 1.66 0.68 2.32 0 3 C-0.24360073 6.12814514 -0.24360073 6.12814514 -0.125 9.625 C-0.10695312 10.81351563 -0.08890625 12.00203125 -0.0703125 13.2265625 C-0.04710937 14.14179687 -0.02390625 15.05703125 0 16 C-0.99 16 -1.98 16 -3 16 C-5.37627155 13.16167565 -6.94159173 11.19736952 -7.125 7.4375 C-5.48566839 3.88561484 -3.12510994 2.32720953 0 0 Z " fill="#E8E8E8" transform="translate(224,107)"/>
<path d="M0 0 C1.98 0 3.96 0 6 0 C6.66 0.66 7.32 1.32 8 2 C7.625 4.625 7.625 4.625 7 7 C5.35 7.33 3.7 7.66 2 8 C2 9.32 2 10.64 2 12 C1.34 12 0.68 12 0 12 C0 8.04 0 4.08 0 0 Z " fill="#9ACDB3" transform="translate(150,101)"/>
<path d="M0 0 C0.33 0 0.66 0 1 0 C1.14263396 4.11172748 1.28504491 8.22346261 1.42724609 12.33520508 C1.47568681 13.7349468 1.52418926 15.1346864 1.57275391 16.53442383 C1.64241373 18.54247489 1.7118356 20.55053419 1.78125 22.55859375 C1.8440918 24.37315063 1.8440918 24.37315063 1.90820312 26.22436523 C2.02303483 29.69649733 1.60243999 30.89527253 0 34 C-0.33 33.34 -0.66 32.68 -1 32 C-1.99 34.475 -1.99 34.475 -3 37 C-3.99 37 -4.98 37 -6 37 C-6.495 35.515 -6.495 35.515 -7 34 C-6.01 33.01 -5.02 32.02 -4 31 C-4.66 30.34 -5.32 29.68 -6 29 C-4.35 29 -2.7 29 -1 29 C-0.67 19.43 -0.34 9.86 0 0 Z " fill="#02692D" transform="translate(38,64)"/>
<path d="M0 0 C0.99 0 1.98 0 3 0 C3.6708712 1.6232687 4.33657029 3.24867578 5 4.875 C5.556875 6.23238281 5.556875 6.23238281 6.125 7.6171875 C7 10 7 10 7 12 C6.34 12 5.68 12 5 12 C4.67 11.34 4.34 10.68 4 10 C0.97065509 9.34227572 0.97065509 9.34227572 -2 9 C-2 9.99 -2 10.98 -2 12 C-2.66 12 -3.32 12 -4 12 C-3.33501617 7.61110675 -1.81242323 4.0188515 0 0 Z " fill="#C8F3DC" transform="translate(32,101)"/>
<path d="M0 0 C0.66 1.32 1.32 2.64 2 4 C1.34 4.66 0.68 5.32 0 6 C0 6.99 0 7.98 0 9 C0 10 0 10 -1 12 C-1.99 11.67 -2.98 11.34 -4 11 C-6.10032332 10.86437186 -6.10032332 10.86437186 -8.21875 11.98828125 C-11.47671981 13.17341353 -14.04120532 13.23194713 -17.5 13.1875 C-18.6034375 13.18105469 -19.706875 13.17460938 -20.84375 13.16796875 C-23.67226083 13.01744156 -26.24692555 12.64204162 -29 12 C-29 11.67 -29 11.34 -29 11 C-27.2984375 11.08701172 -27.2984375 11.08701172 -25.5625 11.17578125 C-14.88337048 11.8285141 -14.88337048 11.8285141 -5.44921875 7.51171875 C-3.20520827 5.17093154 -1.58186546 2.83417561 0 0 Z " fill="#222222" transform="translate(248,69)"/>
<path d="M0 0 C0.33 0 0.66 0 1 0 C1.02578125 0.59167969 1.0515625 1.18335937 1.078125 1.79296875 C1.45809381 7.08662511 2.10607857 10.10607857 6 14 C6.66 14.66 7.32 15.32 8 16 C7.34 16.66 6.68 17.32 6 18 C5.5875 17.484375 5.175 16.96875 4.75 16.4375 C4.1725 15.963125 3.595 15.48875 3 15 C0.83700789 15.22757731 0.83700789 15.22757731 -1 16 C-1 14.68 -1 13.36 -1 12 C-1.66 11.67 -2.32 11.34 -3 11 C-2.67 8.36 -2.34 5.72 -2 3 C-1.34 3 -0.68 3 0 3 C0 2.01 0 1.02 0 0 Z " fill="#F1F1F1" transform="translate(188,80)"/>
<path d="M0 0 C3.75511724 1.87755862 4.88767141 2.62027425 7 6 C7 6.66 7 7.32 7 8 C7.66 8 8.32 8 9 8 C9 5.69 9 3.38 9 1 C9.33 1 9.66 1 10 1 C10 4.63 10 8.26 10 12 C9.34 12 8.68 12 8 12 C6.7109375 10.46875 6.7109375 10.46875 5.375 8.5 C4.92898437 7.8503125 4.48296875 7.200625 4.0234375 6.53125 C3.51683594 5.77328125 3.51683594 5.77328125 3 5 C2.67 7.31 2.34 9.62 2 12 C1.34 12 0.68 12 0 12 C0 8.04 0 4.08 0 0 Z " fill="#BCF3D9" transform="translate(41,101)"/>
<path d="M0 0 C3.3 0 6.6 0 10 0 C9 4 9 4 7 6 C1.66666667 6.33333333 1.66666667 6.33333333 -1 5 C-0.67 3.35 -0.34 1.7 0 0 Z " fill="#027E3B" transform="translate(46,92)"/>
<path d="M0 0 C0.33 0 0.66 0 1 0 C1.02578125 0.62648438 1.0515625 1.25296875 1.078125 1.8984375 C1.13484375 2.71570313 1.1915625 3.53296875 1.25 4.375 C1.29640625 5.18710938 1.3428125 5.99921875 1.390625 6.8359375 C1.59171875 7.55007812 1.7928125 8.26421875 2 9 C3.96044675 10.12607108 3.96044675 10.12607108 6 11 C6.33 11.99 6.66 12.98 7 14 C4.69 14 2.38 14 0 14 C-0.309375 13.195625 -0.61875 12.39125 -0.9375 11.5625 C-1.76335345 9.10919595 -1.76335345 9.10919595 -3 8 C-3.04092937 5.66702567 -3.04241723 3.33294775 -3 1 C-2.01 2.485 -2.01 2.485 -1 4 C-0.67 2.68 -0.34 1.36 0 0 Z " fill="#181818" transform="translate(202,122)"/>
<path d="M0 0 C-0.33 0.99 -0.66 1.98 -1 3 C-2.65 3.33 -4.3 3.66 -6 4 C-6 5.98 -6 7.96 -6 10 C-4.68 10 -3.36 10 -2 10 C-2 8.68 -2 7.36 -2 6 C-1.34 6 -0.68 6 0 6 C0 7.98 0 9.96 0 12 C-5.4 12.36 -5.4 12.36 -7.875 10.875 C-9.52854531 8.11909116 -9.39365568 6.14924548 -9 3 C-6.77089201 -0.71517998 -4.03410755 -0.2689405 0 0 Z " fill="#C6F0D7" transform="translate(110,101)"/>
<path d="M0 0 C0 0.99 0 1.98 0 3 C-1.2065625 2.9690625 -1.2065625 2.9690625 -2.4375 2.9375 C-4.93354885 2.70366379 -4.93354885 2.70366379 -6 4 C-6.04063832 5.66617115 -6.042721 7.33388095 -6 9 C-4.68 9.33 -3.36 9.66 -2 10 C-2 8.68 -2 7.36 -2 6 C-1.34 6 -0.68 6 0 6 C0 7.98 0 9.96 0 12 C-5.4 12.36 -5.4 12.36 -7.875 10.875 C-9.52854531 8.11909116 -9.39365568 6.14924548 -9 3 C-6.77089201 -0.71517998 -4.03410755 -0.2689405 0 0 Z " fill="#B8E7CB" transform="translate(94,101)"/>
<path d="M0 0 C0.66 0 1.32 0 2 0 C2.33 1.32 2.66 2.64 3 4 C4.32 2.68 5.64 1.36 7 0 C7.66 0.33 8.32 0.66 9 1 C8.195625 1.8353125 8.195625 1.8353125 7.375 2.6875 C6.694375 3.8321875 6.694375 3.8321875 6 5 C6.66096786 7.65245602 6.66096786 7.65245602 8 10 C8.33 10.66 8.66 11.32 9 12 C7.125 11.6875 7.125 11.6875 5 11 C4.34 10.01 3.68 9.02 3 8 C2.67 9.32 2.34 10.64 2 12 C1.34 12 0.68 12 0 12 C0 8.04 0 4.08 0 0 Z " fill="#C0F2DB" transform="translate(55,101)"/>
<path d="M0 0 C0.66 0 1.32 0 2 0 C2 0.66 2 1.32 2 2 C4.3078491 3.15392455 6.47230331 3.53437166 9 4 C8.67 2.68 8.34 1.36 8 0 C10.97 0.495 10.97 0.495 14 1 C13.625 2.9375 13.625 2.9375 13 5 C12.01 5.495 12.01 5.495 11 6 C10.01 6.66 9.02 7.32 8 8 C5.8125 7.625 5.8125 7.625 4 7 C4 6.34 4 5.68 4 5 C3.01 5.33 2.02 5.66 1 6 C0.34 5.67 -0.32 5.34 -1 5 C-0.67 3.35 -0.34 1.7 0 0 Z " fill="#007A35" transform="translate(66,92)"/>
<path d="M0 0 C0.66 0 1.32 0 2 0 C2 3.63 2 7.26 2 11 C-1.375 11.625 -1.375 11.625 -5 12 C-7 10 -7 10 -7.1953125 7.8359375 C-7.17210937 7.02382812 -7.14890625 6.21171875 -7.125 5.375 C-7.10695312 4.55773437 -7.08890625 3.74046875 -7.0703125 2.8984375 C-7.04710937 2.27195312 -7.02390625 1.64546875 -7 1 C-6.34 1 -5.68 1 -5 1 C-4.67 3.64 -4.34 6.28 -4 9 C-2.68 9.33 -1.36 9.66 0 10 C0 6.7 0 3.4 0 0 Z " fill="#C0F1D6" transform="translate(145,101)"/>
<path d="M0 0 C4.1424367 1.38081223 5.32203099 3.59825558 8 7 C6.56589632 7.24954005 5.12739928 7.47392642 3.6875 7.6875 C2.88699219 7.81511719 2.08648437 7.94273438 1.26171875 8.07421875 C-1 8 -1 8 -2.79296875 6.64453125 C-4 5 -4 5 -4 3 C-3.01 3 -2.02 3 -1 3 C-0.67 2.01 -0.34 1.02 0 0 Z " fill="#1C1C1C" transform="translate(195,87)"/>
<path d="M0 0 C2.625 0.375 2.625 0.375 5 1 C5.04254356 2.99954746 5.04080783 5.00041636 5 7 C4 8 4 8 1.5 8.125 C-1 8 -1 8 -2 7 C-2.1875 4.5625 -2.1875 4.5625 -2 2 C-1.34 1.34 -0.68 0.68 0 0 Z " fill="#196C3E" transform="translate(128,103)"/>
<path d="M0 0 C0.99 0 1.98 0 3 0 C3.33 2.64 3.66 5.28 4 8 C4.33 5.36 4.66 2.72 5 0 C5.33 0 5.66 0 6 0 C6.02694851 1.95825873 6.04637218 3.91662226 6.0625 5.875 C6.07410156 6.96554688 6.08570313 8.05609375 6.09765625 9.1796875 C6 12 6 12 5 14 C4.01 14 3.02 14 2 14 C1.87625 13.030625 1.7525 12.06125 1.625 11.0625 C1.41875 10.051875 1.2125 9.04125 1 8 C0.34 7.67 -0.32 7.34 -1 7 C-0.67 4.69 -0.34 2.38 0 0 Z " fill="#49946B" transform="translate(49,101)"/>
<path d="M0 0 C3.2733404 1.58707413 4.3907959 3.83570295 6.0625 7 C6.3125 10.375 6.3125 10.375 6.0625 13 C5.0725 12.34 4.0825 11.68 3.0625 11 C2.875 8.375 2.875 8.375 3.0625 6 C2.0725 6.33 1.0825 6.66 0.0625 7 C-0.5975 6.01 -1.2575 5.02 -1.9375 4 C-2.9275 3.34 -3.9175 2.68 -4.9375 2 C-1.9375 0 -1.9375 0 0 0 Z " fill="#CAEDDE" transform="translate(130.9375,66)"/>
<path d="M0 0 C3.26460973 1.80412643 4.88929795 2.83394693 7 6 C6.66906957 8.79155827 5.79958861 11.29028304 5 14 C3 10 3 10 2.3125 7.875 C0.23394415 4.9056345 -2.59318726 4.7570695 -6 4 C-6 3.67 -6 3.34 -6 3 C-4.02 2.67 -2.04 2.34 0 2 C0 1.34 0 0.68 0 0 Z " fill="#CCEEDC" transform="translate(76,64)"/>
<path d="M0 0 C0.99 0.33 1.98 0.66 3 1 C0.03 5.455 0.03 5.455 -3 10 C-5.40072955 7.11912454 -7.47291037 4.43595166 -9 1 C-7.68 1.33 -6.36 1.66 -5 2 C-5 2.66 -5 3.32 -5 4 C-1.87802522 2.6910428 -1.87802522 2.6910428 0 0 Z " fill="#187045" transform="translate(102,65)"/>
<path d="M0 0 C4.95 0 9.9 0 15 0 C15 0.99 15 1.98 15 3 C10.05 3 5.1 3 0 3 C0 2.01 0 1.02 0 0 Z " fill="#F2FDF6" transform="translate(41,86)"/>
<path d="M0 0 C1.41623216 -0.05447047 2.83308191 -0.09300508 4.25 -0.125 C5.03890625 -0.14820312 5.8278125 -0.17140625 6.640625 -0.1953125 C9.20731941 0.0171622 10.7916067 0.71345895 13 2 C7.42531458 5.61601216 2.39432346 5.30720059 -4 5 C-4 4.67 -4 4.34 -4 4 C-0.535 3.505 -0.535 3.505 3 3 C2.01 2.01 1.02 1.02 0 0 Z " fill="#C4E7D0" transform="translate(119,85)"/>
<path d="M0 0 C3.375 0.25 3.375 0.25 7 1 C8.4375 3.0625 8.4375 3.0625 9 5 C6.69 5.33 4.38 5.66 2 6 C2 5.34 2 4.68 2 4 C0.02 4.99 -1.96 5.98 -4 7 C-2.79618552 4.50638429 -1.54571278 2.31856917 0 0 Z " fill="#6E6F6F" transform="translate(195,73)"/>
<path d="M0 0 C0.99 0.33 1.98 0.66 3 1 C3 1.66 3 2.32 3 3 C4.98 2.67 6.96 2.34 9 2 C10.32 3.65 11.64 5.3 13 7 C7.97745369 7.2954439 5.10457614 6.98514628 1 4 C1 4.66 1 5.32 1 6 C0.01 5.67 -0.98 5.34 -2 5 C-2.33 4.01 -2.66 3.02 -3 2 C-2.01 1.67 -1.02 1.34 0 1 C0 0.67 0 0.34 0 0 Z " fill="#F4F4F4" transform="translate(243,40)"/>
<path d="M0 0 C0.33 0.66 0.66 1.32 1 2 C1.66 2 2.32 2 3 2 C3.33 1.34 3.66 0.68 4 0 C8.6875 3.61328125 8.6875 3.61328125 10 5 C10 5.99 10 6.98 10 8 C8.02 8 6.04 8 4 8 C3.896875 7.360625 3.79375 6.72125 3.6875 6.0625 C3.460625 5.381875 3.23375 4.70125 3 4 C2.01 3.67 1.02 3.34 0 3 C0 2.01 0 1.02 0 0 Z " fill="#232323" transform="translate(221,128)"/>
<path d="M0 0 C2 2 2 2 2 5 C2.33 4.01 2.66 3.02 3 2 C3.99 2.33 4.98 2.66 6 3 C5.01 4.485 5.01 4.485 4 6 C3.55058745 8.38299617 3.18393057 10.78225484 2.875 13.1875 C2.70742187 14.45980469 2.53984375 15.73210937 2.3671875 17.04296875 C2.24601563 18.01878906 2.12484375 18.99460937 2 20 C-0.03120707 16.95318939 -0.24659875 16.39881676 -0.1953125 12.98828125 C-0.18886719 12.23095703 -0.18242187 11.47363281 -0.17578125 10.69335938 C-0.15902344 9.90767578 -0.14226562 9.12199219 -0.125 8.3125 C-0.11597656 7.51521484 -0.10695312 6.71792969 -0.09765625 5.89648438 C-0.07411585 3.930861 -0.03824547 1.96539225 0 0 Z " fill="#050505" transform="translate(200,109)"/>
<path d="M0 0 C3.93846154 3.32307692 3.93846154 3.32307692 4.25 6.75 C4.1675 7.4925 4.085 8.235 4 9 C2.35 8.67 0.7 8.34 -1 8 C-1.66 5.69 -2.32 3.38 -3 1 C-2.01 0.67 -1.02 0.34 0 0 Z " fill="#272727" transform="translate(282,104)"/>
<path d="M0 0 C0.66 0 1.32 0 2 0 C2.33 0.66 2.66 1.32 3 2 C3.66 1.67 4.32 1.34 5 1 C6.38125018 3.76250036 6.19079306 5.94731099 6 9 C5.34 9.66 4.68 10.32 4 11 C3.67 10.34 3.34 9.68 3 9 C2.01 9.495 2.01 9.495 1 10 C0.34 7.69 -0.32 5.38 -1 3 C-0.34 3 0.32 3 1 3 C0.67 2.01 0.34 1.02 0 0 Z " fill="#067136" transform="translate(74,71)"/>
<path d="M0 0 C2 3 2 3 2 5 C0.2984375 5.2165625 0.2984375 5.2165625 -1.4375 5.4375 C-4.80777201 5.61171478 -4.80777201 5.61171478 -6 7 C-8.67058851 7.14115161 -11.32432238 7.04247107 -14 7 C-13.34 5.68 -12.68 4.36 -12 3 C-10.37509046 2.97301811 -8.75005367 2.95361243 -7.125 2.9375 C-6.22007812 2.92589844 -5.31515625 2.91429688 -4.3828125 2.90234375 C-2 3 -2 3 0 4 C0 2.68 0 1.36 0 0 Z " fill="#1D7F49" transform="translate(152,109)"/>
<path d="M0 0 C1.45792884 -0.05399736 2.91642712 -0.09279177 4.375 -0.125 C5.18710938 -0.14820312 5.99921875 -0.17140625 6.8359375 -0.1953125 C9 0 9 0 11 2 C9.02 2 7.04 2 5 2 C5.33 2.99 5.66 3.98 6 5 C4.1875 5.625 4.1875 5.625 2 6 C1.01 5.34 0.02 4.68 -1 4 C-0.67 2.68 -0.34 1.36 0 0 Z " fill="#237449" transform="translate(146,68)"/>
<path d="M0 0 C1.44207941 2.88415883 1.09394887 5.41721528 1.0625 8.625 C1.05347656 9.81351563 1.04445312 11.00203125 1.03515625 12.2265625 C1.02355469 13.14179687 1.01195312 14.05703125 1 15 C-0.32 14.34 -1.64 13.68 -3 13 C-3 13.66 -3 14.32 -3 15 C-3.66 14.67 -4.32 14.34 -5 14 C-4.67 13.484375 -4.34 12.96875 -4 12.4375 C-2.76690125 9.88963819 -2.76690125 9.88963819 -3.0625 6.4375 C-3 3 -3 3 -1.5 1.0625 C-1.005 0.711875 -0.51 0.36125 0 0 Z " fill="#11683B" transform="translate(138,99)"/>
<path d="M0 0 C0 0.33 0 0.66 0 1 C-0.59167969 1.10957031 -1.18335937 1.21914063 -1.79296875 1.33203125 C-8.00753987 2.57900066 -12.64018324 4.18125516 -17 9 C-16.71202981 7.65613912 -16.36784131 6.3242287 -16 5 C-15.814375 4.29875 -15.62875 3.5975 -15.4375 2.875 C-13.46022725 0.29594859 -11.20637029 -0.11180186 -8.109375 -0.76171875 C-5.25847671 -1.08376467 -2.76974645 -0.69243661 0 0 Z " fill="#116837" transform="translate(75,62)"/>
<path d="M0 0 C0.99 0 1.98 0 3 0 C3 0.99 3 1.98 3 3 C3.66 3.33 4.32 3.66 5 4 C4.34 4 3.68 4 3 4 C3 5.32 3 6.64 3 8 C1.35 7.67 -0.3 7.34 -2 7 C-2.125 4.625 -2.125 4.625 -2 2 C-1.34 1.34 -0.68 0.68 0 0 Z " fill="#1A6F43" transform="translate(89,103)"/>
<path d="M0 0 C0.99 0.99 1.98 1.98 3 3 C1.125 7.875 1.125 7.875 0 9 C-1.66617115 9.04063832 -3.33388095 9.042721 -5 9 C-3.7508258 5.54074837 -2.32472205 2.85306797 0 0 Z " fill="#C6EED9" transform="translate(95,81)"/>
<path d="M0 0 C4.95 0.99 4.95 0.99 10 2 C9.67 2.66 9.34 3.32 9 4 C9.66 4.66 10.32 5.32 11 6 C9.741875 6.04125 8.48375 6.0825 7.1875 6.125 C6.47980469 6.14820312 5.77210938 6.17140625 5.04296875 6.1953125 C3 6 3 6 0 4 C0 2.68 0 1.36 0 0 Z " fill="#CAE8D3" transform="translate(141,84)"/>
<path d="M0 0 C6.0546875 -0.1953125 6.0546875 -0.1953125 8 0 C10 2 10 2 10 4 C6.37 4 2.74 4 -1 4 C-0.67 2.68 -0.34 1.36 0 0 Z " fill="#E1F9ED" transform="translate(120,64)"/>
<path d="M0 0 C0.33 0.66 0.66 1.32 1 2 C1.99 1.67 2.98 1.34 4 1 C2.87092799 4.38721604 1.48555675 5.51444325 -1 8 C-2.23512079 10.13309192 -2.23512079 10.13309192 -3 12 C-5.31 11.67 -7.62 11.34 -10 11 C-9.01 10.34 -8.02 9.68 -7 9 C-3.23729409 6.33857387 -1.35769621 4.44336943 0 0 Z " fill="#207748" transform="translate(136,79)"/>
<path d="M0 0 C2.91987762 1.30891066 4.796867 2.70506979 7 5 C8.31963709 6.01800576 9.65009646 7.02248365 11 8 C5.375 9.125 5.375 9.125 2 8 C0.04457812 5.01540871 0 3.73585209 0 0 Z " fill="#177E4B" transform="translate(138,71)"/>
<path d="M0 0 C0.66 0.33 1.32 0.66 2 1 C1.54625 1.391875 1.0925 1.78375 0.625 2.1875 C-1.27642919 4.30832487 -2.06204028 6.33042235 -3 9 C-5.97 8.505 -5.97 8.505 -9 8 C-8.67 7.34 -8.34 6.68 -8 6 C-7.34 6 -6.68 6 -6 6 C-6.66 5.34 -7.32 4.68 -8 4 C-6.71349294 3.30289269 -5.42059335 2.61757124 -4.125 1.9375 C-3.40570313 1.55464844 -2.68640625 1.17179687 -1.9453125 0.77734375 C-1.30335938 0.52082031 -0.66140625 0.26429687 0 0 Z " fill="#666666" transform="translate(243,78)"/>
<path d="M0 0 C1.875 1.5 1.875 1.5 3 3 C1.68 3.33 0.36 3.66 -1 4 C0.32 4.66 1.64 5.32 3 6 C1.02 6 -0.96 6 -3 6 C-3 5.01 -3 4.02 -3 3 C-5.97 2.67 -8.94 2.34 -12 2 C-12 1.67 -12 1.34 -12 1 C-7.94762072 0.22811823 -4.12401319 -0.36657895 0 0 Z " fill="#5A5A5A" transform="translate(235,82)"/>
<path d="M0 0 C4.29 0.66 8.58 1.32 13 2 C13 2.33 13 2.66 13 3 C3.58997722 5.11161731 3.58997722 5.11161731 -1 6 C-0.67 4.02 -0.34 2.04 0 0 Z " fill="#686868" transform="translate(216,80)"/>
<path d="M0 0 C0.99 0.66 1.98 1.32 3 2 C3.55808445 6.22549657 3.43824097 8.31342248 1.125 11.9375 C-1 14 -1 14 -3 14 C-3 12.35 -3 10.7 -3 9 C-1.68 9 -0.36 9 1 9 C0.67 6.03 0.34 3.06 0 0 Z " fill="#246F49" transform="translate(129,71)"/>
<path d="M0 0 C2.31 0 4.62 0 7 0 C4 2 4 2 2 2 C2.01160156 2.66386719 2.02320312 3.32773438 2.03515625 4.01171875 C2.12478032 12.78207381 2.12478032 12.78207381 1 17 C0.67 17 0.34 17 0 17 C0 11.39 0 5.78 0 0 Z " fill="#26754D" transform="translate(119,68)"/>
<path d="M0 0 C8.01369863 0.34246575 8.01369863 0.34246575 11.625 2.75 C13 5 13 5 12.75 7.75 C12.5025 8.4925 12.255 9.235 12 10 C11.5978125 9.1028125 11.5978125 9.1028125 11.1875 8.1875 C9.59696782 5.13243908 9.59696782 5.13243908 7 3 C4.23639953 3.05472476 1.73760284 3.50633391 -1 4 C-0.67 2.68 -0.34 1.36 0 0 Z " fill="#167A46" transform="translate(147,97)"/>
<path d="M0 0 C0 0.99 0 1.98 0 3 C-0.66 3 -1.32 3 -2 3 C-2.33 3.66 -2.66 4.32 -3 5 C-3.33 4.67 -3.66 4.34 -4 4 C-5.34747084 3.76924918 -6.70377565 3.58846937 -8.0625 3.4375 C-9.361875 3.293125 -10.66125 3.14875 -12 3 C-7.40611595 -0.52197777 -5.79080563 -1.13298371 0 0 Z " fill="#E7E7E7" transform="translate(279,85)"/>
<path d="M0 0 C1.98 0.99 1.98 0.99 4 2 C4 2.99 4 3.98 4 5 C7.96 5 11.92 5 16 5 C16 5.33 16 5.66 16 6 C11.05 6 6.1 6 1 6 C0.67 6.99 0.34 7.98 0 9 C0 6.03 0 3.06 0 0 Z " fill="#CEEEDF" transform="translate(40,80)"/>
<path d="M0 0 C0.66 0 1.32 0 2 0 C2.12375 0.804375 2.2475 1.60875 2.375 2.4375 C2.684375 3.7059375 2.684375 3.7059375 3 5 C5.29629994 6.14814997 7.07698086 6.30769809 9.625 6.5625 C10.44226563 6.64628906 11.25953125 6.73007813 12.1015625 6.81640625 C12.72804687 6.87699219 13.35453125 6.93757813 14 7 C14 7.33 14 7.66 14 8 C8.72 8 3.44 8 -2 8 C-2.33 7.01 -2.66 6.02 -3 5 C-2.01 5 -1.02 5 0 5 C0 3.35 0 1.7 0 0 Z " fill="#0B703A" transform="translate(139,83)"/>
<path d="M0 0 C1.65 0 3.3 0 5 0 C4.67 0.66 4.34 1.32 4 2 C3.95977609 4.3329866 3.95679753 6.66706666 4 9 C3.01 9 2.02 9 1 9 C0.67 9.66 0.34 10.32 0 11 C0 7.37 0 3.74 0 0 Z " fill="#27744B" transform="translate(82,102)"/>
<path d="M0 0 C-0.33 1.32 -0.66 2.64 -1 4 C-2.65 4 -4.3 4 -6 4 C-6.33 2.35 -6.66 0.7 -7 -1 C-3.51418144 -2.2020064 -3.32007656 -2.21338437 0 0 Z " fill="#353535" transform="translate(295,95)"/>
<path d="M0 0 C0.66 0.33 1.32 0.66 2 1 C2 6.28 2 11.56 2 17 C1.67 17 1.34 17 1 17 C1 13.7 1 10.4 1 7 C0.01 7.33 -0.98 7.66 -2 8 C-2.125 5.125 -2.125 5.125 -2 2 C-1.34 1.34 -0.68 0.68 0 0 Z " fill="#076A35" transform="translate(112,63)"/>
<path d="M0 0 C3 2 3 2 4 5 C4.12781786 7.67394964 4.04391871 10.32095857 4 13 C2.68 12.67 1.36 12.34 0 12 C0 8.04 0 4.08 0 0 Z " fill="#5F5F5F" transform="translate(258,56)"/>
<path d="M0 0 C0.99 0.66 1.98 1.32 3 2 C3.36760731 4.32817964 3.70241581 6.6618385 4 9 C4.66 9.33 5.32 9.66 6 10 C4.68 10.33 3.36 10.66 2 11 C-0.125 8.3125 -0.125 8.3125 -2 5 C-1.25 2.125 -1.25 2.125 0 0 Z " fill="#35825A" transform="translate(121,103)"/>
<path d="M0 0 C0.33 0.66 0.66 1.32 1 2 C2.98 2 4.96 2 7 2 C6.01 3.485 6.01 3.485 5 5 C4.70547416 7.38677076 4.5071783 9.78626094 4.375 12.1875 C4.26285156 14.09595703 4.26285156 14.09595703 4.1484375 16.04296875 C4.09945312 17.01878906 4.05046875 17.99460937 4 19 C3.67 19 3.34 19 3 19 C2.95101562 18.01257813 2.90203125 17.02515625 2.8515625 16.0078125 C2.77679688 14.72648437 2.70203125 13.44515625 2.625 12.125 C2.55539063 10.84882812 2.48578125 9.57265625 2.4140625 8.2578125 C2.32758894 4.91938301 2.32758894 4.91938301 0 3 C0 2.01 0 1.02 0 0 Z " fill="#BBBBBB" transform="translate(196,104)"/>
<path d="M0 0 C0.66 0.33 1.32 0.66 2 1 C2 3.31 2 5.62 2 8 C1.01 8.33 0.02 8.66 -1 9 C-2.1875 6.75 -2.1875 6.75 -3 4 C-1.625 1.6875 -1.625 1.6875 0 0 Z " fill="#1D7148" transform="translate(63,102)"/>
<path d="M0 0 C0.99 0 1.98 0 3 0 C2.34 3.3 1.68 6.6 1 10 C-0.32 10.33 -1.64 10.66 -3 11 C-3 9 -3 7 -3 5 C-2.34 5 -1.68 5 -1 5 C-0.67 3.35 -0.34 1.7 0 0 Z " fill="#0B0A0B" transform="translate(264,70)"/>
<path d="M0 0 C0.99 1.32 1.98 2.64 3 4 C2.01 4.66 1.02 5.32 0 6 C-1.00168531 7.94832935 -1.00168531 7.94832935 -1.6875 10.125 C-1.93886719 10.84945312 -2.19023437 11.57390625 -2.44921875 12.3203125 C-2.63097656 12.87460937 -2.81273437 13.42890625 -3 14 C-3.66 13.34 -4.32 12.68 -5 12 C-4.54965877 10.37276701 -4.08944646 8.74826336 -3.625 7.125 C-3.36976563 6.22007813 -3.11453125 5.31515625 -2.8515625 4.3828125 C-2 2 -2 2 0 0 Z " fill="#6A6869" transform="translate(246,51)"/>
<path d="M0 0 C-0.33 1.32 -0.66 2.64 -1 4 C-2.32 4 -3.64 4 -5 4 C-5.33 3.34 -5.66 2.68 -6 2 C-8.52733235 1.34444881 -8.52733235 1.34444881 -11 1 C-11 0.67 -11 0.34 -11 0 C-7.01803543 -1.05404945 -4.01804691 -0.84098656 0 0 Z " fill="#0B0B0B" transform="translate(279,80)"/>
<path d="M0 0 C0.99 0 1.98 0 3 0 C2.67 0.99 2.34 1.98 2 3 C1.01 3.33 0.02 3.66 -1 4 C-0.67 4.66 -0.34 5.32 0 6 C-0.99 6 -1.98 6 -3 6 C-2.67 7.32 -2.34 8.64 -2 10 C-2.66 10 -3.32 10 -4 10 C-4.33 10.66 -4.66 11.32 -5 12 C-5.33 11.34 -5.66 10.68 -6 10 C-5.29296875 8.125 -5.29296875 8.125 -4.1875 6 C-3.83042969 5.29875 -3.47335938 4.5975 -3.10546875 3.875 C-2 2 -2 2 0 0 Z " fill="#EBEAEA" transform="translate(247,63)"/>
<path d="M0 0 C0.66 0 1.32 0 2 0 C1.67 1.65 1.34 3.3 1 5 C1.66 5 2.32 5 3 5 C3 5.66 3 6.32 3 7 C3.99 7.33 4.98 7.66 6 8 C3.1875 8.625 3.1875 8.625 0 9 C-0.99 8.34 -1.98 7.68 -3 7 C-3 6.34 -3 5.68 -3 5 C-2.34 4.67 -1.68 4.34 -1 4 C-0.34786708 1.97536745 -0.34786708 1.97536745 0 0 Z " fill="#077039" transform="translate(116,109)"/>
<path d="M0 0 C2.31 0 4.62 0 7 0 C7.33 1.65 7.66 3.3 8 5 C6.02 5 4.04 5 2 5 C2 4.01 2 3.02 2 2 C1.34 1.34 0.68 0.68 0 0 Z " fill="#78B696" transform="translate(18,101)"/>
<path d="M0 0 C0.61875 0.33 1.2375 0.66 1.875 1 C3.91018344 2.14193235 3.91018344 2.14193235 6 2 C6.99 2 7.98 2 9 2 C6.64722731 4.72426311 4.37503669 5.8141763 1 7 C0 6 0 6 -0.0625 2.9375 C-0.041875 1.968125 -0.02125 0.99875 0 0 Z " fill="#0D0B0C" transform="translate(263,82)"/>
<path d="M0 0 C0.66 0.33 1.32 0.66 2 1 C2 3.97 2 6.94 2 10 C1.01 10 0.02 10 -1 10 C-1.02689216 8.52093108 -1.04634621 7.04172517 -1.0625 5.5625 C-1.07410156 4.73878906 -1.08570312 3.91507812 -1.09765625 3.06640625 C-1 1 -1 1 0 0 Z " fill="#FBFBF1" transform="translate(20,79)"/>
<path d="M0 0 C0.33 0 0.66 0 1 0 C0.62422289 6.13769283 -1.0419407 9.26963644 -5 14 C-5.66 14 -6.32 14 -7 14 C-7.33 12.68 -7.66 11.36 -8 10 C-7.01 10 -6.02 10 -5 10 C-4.67 9.34 -4.34 8.68 -4 8 C-3.34 8 -2.68 8 -2 8 C-1.34 5.36 -0.68 2.72 0 0 Z " fill="#090909" transform="translate(257,65)"/>
<path d="M0 0 C0.66 0.33 1.32 0.66 2 1 C1.34 2.65 0.68 4.3 0 6 C-0.66 6 -1.32 6 -2 6 C-2.33 7.65 -2.66 9.3 -3 11 C-3.99 10.67 -4.98 10.34 -6 10 C-4.02 6.7 -2.04 3.4 0 0 Z " fill="#26754D" transform="translate(109,66)"/>
<path d="M0 0 C3.31686552 0.01786463 3.9727453 0.14069624 6.6875 2.3125 C7.1825 2.9725 7.6775 3.6325 8.1875 4.3125 C7.1975 5.3025 6.2075 6.2925 5.1875 7.3125 C5.1875 5.9925 5.1875 4.6725 5.1875 3.3125 C1.08526415 2.29709888 1.08526415 2.29709888 -2.8125 3.3125 C-3.4725 2.6525 -4.1325 1.9925 -4.8125 1.3125 C-3.8125 0.3125 -3.8125 0.3125 0 0 Z " fill="#1E7246" transform="translate(70.8125,67.6875)"/>
<path d="M0 0 C-0.7425 1.175625 -0.7425 1.175625 -1.5 2.375 C-3.16537965 4.78552327 -3.16537965 4.78552327 -3 7 C-4.32 6.67 -5.64 6.34 -7 6 C-6.34 6 -5.68 6 -5 6 C-5.66 4.35 -6.32 2.7 -7 1 C-3.375 -1.125 -3.375 -1.125 0 0 Z " fill="#128146" transform="translate(66,112)"/>
<path d="M0 0 C1.32 0 2.64 0 4 0 C4.33 1.65 4.66 3.3 5 5 C2.69 5 0.38 5 -2 5 C-1.125 1.125 -1.125 1.125 0 0 Z " fill="#7AB397" transform="translate(20,108)"/>
<path d="M0 0 C0 0.66 0 1.32 0 2 C-0.969375 2.309375 -1.93875 2.61875 -2.9375 2.9375 C-5.84065792 3.69523342 -5.84065792 3.69523342 -7 5 C-7.04092937 7.33297433 -7.04241723 9.66705225 -7 12 C-7.99 12.495 -7.99 12.495 -9 13 C-9.05395478 11.37536158 -9.09277195 9.75021459 -9.125 8.125 C-9.14820312 7.22007813 -9.17140625 6.31515625 -9.1953125 5.3828125 C-9 3 -9 3 -7 1 C-4.49940039 0.19335496 -2.66053211 0 0 0 Z " fill="#156638" transform="translate(109,99)"/>
<path d="M0 0 C0.66386719 0.08378906 1.32773438 0.16757813 2.01171875 0.25390625 C8.54720848 1.05425042 8.54720848 1.05425042 15 0 C12.47047712 3.15111212 10.23243734 3.58798017 6.3125 4.1875 C5.31863281 4.34605469 4.32476562 4.50460938 3.30078125 4.66796875 C2.54152344 4.77753906 1.78226562 4.88710937 1 5 C0.67 3.35 0.34 1.7 0 0 Z " fill="#33865E" transform="translate(64,88)"/>
<path d="M0 0 C0.99 0.66 1.98 1.32 3 2 C2.125 5.875 2.125 5.875 1 7 C-1.9375 7.1875 -1.9375 7.1875 -5 7 C-5.66 6.34 -6.32 5.68 -7 5 C-4.69 5 -2.38 5 0 5 C0 3.35 0 1.7 0 0 Z " fill="#256B46" transform="translate(151,79)"/>
<path d="M0 0 C1.98 0.495 1.98 0.495 4 1 C4 1.66 4 2.32 4 3 C4.99 3.33 5.98 3.66 7 4 C7 4.66 7 5.32 7 6 C3.31245243 5.50168276 1.39509338 4.89932357 -1 2 C-0.67 1.34 -0.34 0.68 0 0 Z " fill="#DDF8E8" transform="translate(145,73)"/>
<path d="M0 0 C0.66 0.33 1.32 0.66 2 1 C2 1.66 2 2.32 2 3 C2.66 3 3.32 3 4 3 C4 4.32 4 5.64 4 7 C2.35 6.67 0.7 6.34 -1 6 C-1.042721 4.33388095 -1.04063832 2.66617115 -1 1 C-0.67 0.67 -0.34 0.34 0 0 Z " fill="#0C0C0C" transform="translate(213,111)"/>
<path d="M0 0 C0.66 0 1.32 0 2 0 C2 3.96 2 7.92 2 12 C1.01 11.67 0.02 11.34 -1 11 C-0.67 10.01 -0.34 9.02 0 8 C0.06665376 6.60560336 0.08538199 5.20830125 0.0625 3.8125 C0.041875 2.554375 0.02125 1.29625 0 0 Z " fill="#CEF8DD" transform="translate(80,101)"/>
<path d="M0 0 C0.66 0 1.32 0 2 0 C2.125 3.375 2.125 3.375 2 7 C1.34 7.66 0.68 8.32 0 9 C-1.5 7.625 -1.5 7.625 -3 6 C-3 5.34 -3 4.68 -3 4 C-2.34 4 -1.68 4 -1 4 C-0.67 2.68 -0.34 1.36 0 0 Z " fill="#0C743E" transform="translate(95,100)"/>
<path d="M0 0 C1.98 0.495 1.98 0.495 4 1 C4 1.66 4 2.32 4 3 C4.66 3 5.32 3 6 3 C5.67 4.65 5.34 6.3 5 8 C3.02 6.35 1.04 4.7 -1 3 C-0.67 2.01 -0.34 1.02 0 0 Z " fill="#177645" transform="translate(42,98)"/>
<path d="M0 0 C1.24674659 3.74023976 0.76679965 6.16600177 0 10 C-0.66 10.66 -1.32 11.32 -2 12 C-2.66 11.67 -3.32 11.34 -4 11 C-3.39301257 6.87248551 -1.96189209 3.6678852 0 0 Z " fill="#176B3D" transform="translate(29,105)"/>
<path d="M0 0 C0.33 0 0.66 0 1 0 C1 2.97 1 5.94 1 9 C0.01 8.67 -0.98 8.34 -2 8 C-2.33 6.02 -2.66 4.04 -3 2 C-2.01 2.33 -1.02 2.66 0 3 C0 2.01 0 1.02 0 0 Z " fill="#1F613F" transform="translate(40,103)"/>
<path d="M0 0 C0.66 0.33 1.32 0.66 2 1 C0.68775452 4.93673644 -0.91910327 7.22719294 -4 10 C-4 8.02 -4 6.04 -4 4 C-2.68 4 -1.36 4 0 4 C0 2.68 0 1.36 0 0 Z " fill="#0F6636" transform="translate(93,79)"/>
<path d="M0 0 C3 3.75 3 3.75 3 6 C4.32 6.33 5.64 6.66 7 7 C4.50935112 7.68707555 2.62113708 8 0 8 C0 5.36 0 2.72 0 0 Z " fill="#076E33" transform="translate(137,73)"/>
<path d="M0 0 C0.66 0 1.32 0 2 0 C2 1.98 2 3.96 2 6 C-0.875 6.125 -0.875 6.125 -4 6 C-4.66 5.34 -5.32 4.68 -6 4 C-3.50907189 2.75453595 -2.58919267 3.2232422 0 4 C0 2.68 0 1.36 0 0 Z " fill="#C4F3DA" transform="translate(92,107)"/>
<path d="M0 0 C0.33 0 0.66 0 1 0 C1 2.97 1 5.94 1 9 C-0.32 9 -1.64 9 -3 9 C-3 7.02 -3 5.04 -3 3 C-2.67 3.66 -2.34 4.32 -2 5 C-1.34 5 -0.68 5 0 5 C0 3.35 0 1.7 0 0 Z " fill="#0B6332" transform="translate(144,102)"/>
<path d="M0 0 C2.52588702 2.36292656 3.88820837 3.66462511 5 7 C3.68 7.33 2.36 7.66 1 8 C0.67 5.36 0.34 2.72 0 0 Z " fill="#121212" transform="translate(278,97)"/>
<path d="M0 0 C1.32 1.32 2.64 2.64 4 4 C2.02 4.99 2.02 4.99 0 6 C0 5.34 0 4.68 0 4 C-0.66 4 -1.32 4 -2 4 C-2 3.01 -2 2.02 -2 1 C-1.34 0.67 -0.68 0.34 0 0 Z M-3 6 C0 7 0 7 0 7 Z " fill="#2B2B2B" transform="translate(204,77)"/>
<path d="M0 0 C1.32 0 2.64 0 4 0 C3.125 5.75 3.125 5.75 2 8 C1.34 8 0.68 8 0 8 C0 5.36 0 2.72 0 0 Z " fill="#F7FCF7" transform="translate(59,71)"/>
<path d="M0 0 C2.475 0.495 2.475 0.495 5 1 C5 1.66 5 2.32 5 3 C5.99 2.67 6.98 2.34 8 2 C8.66 2.66 9.32 3.32 10 4 C8.35 4.66 6.7 5.32 5 6 C3.35 4.02 1.7 2.04 0 0 Z " fill="#191919" transform="translate(255,52)"/>
<path d="M0 0 C4.875 2.625 4.875 2.625 6 6 C4.35 5.67 2.7 5.34 1 5 C0.67 3.35 0.34 1.7 0 0 Z " fill="#292929" transform="translate(203,130)"/>
<path d="M0 0 C1.98 0.495 1.98 0.495 4 1 C3.67 2.65 3.34 4.3 3 6 C1.68 5.67 0.36 5.34 -1 5 C-0.67 3.35 -0.34 1.7 0 0 Z " fill="#1E1E1E" transform="translate(193,101)"/>
<path d="M0 0 C1.98 0.66 3.96 1.32 6 2 C4.35 3.65 2.7 5.3 1 7 C0.67 4.69 0.34 2.38 0 0 Z " fill="#186F3F" transform="translate(56,99)"/>
<path d="M0 0 C0.99 1.32 1.98 2.64 3 4 C2 6 2 6 0 7 C-1.32 5.02 -2.64 3.04 -4 1 C-2.68 0.67 -1.36 0.34 0 0 Z " fill="#2B2B2B" transform="translate(277,92)"/>
<path d="M0 0 C2.97 0.495 2.97 0.495 6 1 C6 1.99 6 2.98 6 4 C4.02 4 2.04 4 0 4 C0 2.68 0 1.36 0 0 Z " fill="#F4FDF1" transform="translate(116,85)"/>
<path d="M0 0 C1.32 1.65 2.64 3.3 4 5 C3.34 5.66 2.68 6.32 2 7 C1.34 6.67 0.68 6.34 0 6 C-0.33 6.99 -0.66 7.98 -1 9 C-1.33 9 -1.66 9 -2 9 C-2.20140476 5.37471432 -1.85776765 3.13498292 0 0 Z " fill="#257A51" transform="translate(58,81)"/>
<path d="M0 0 C2.49388574 4.98777148 1.88836125 6.66983248 1 12 C0.01 12.33 -0.98 12.66 -2 13 C-1.34 8.71 -0.68 4.42 0 0 Z " fill="#16693D" transform="translate(85,72)"/>
<path d="M0 0 C0.66 0.99 1.32 1.98 2 3 C2.66 2.67 3.32 2.34 4 2 C4 3.65 4 5.3 4 7 C2.35 7.33 0.7 7.66 -1 8 C-0.67 5.36 -0.34 2.72 0 0 Z " fill="#15713E" transform="translate(74,77)"/>
<path d="M0 0 C0.99 0 1.98 0 3 0 C3.66 2.31 4.32 4.62 5 7 C3.35 7 1.7 7 0 7 C0.66 5.02 1.32 3.04 2 1 C1.34 0.67 0.68 0.34 0 0 Z " fill="#87B29A" transform="translate(32,101)"/>
<path d="M0 0 C2.44897847 3.67346771 2.31537716 5.66356399 2 10 C1.34 10.66 0.68 11.32 0 12 C-0.76173392 7.6835078 -1.16063604 4.25566547 0 0 Z " fill="#CFF0E1" transform="translate(83,71)"/>
<path d="M0 0 C0 0.66 0 1.32 0 2 C-4.43076923 4.09230769 -4.43076923 4.09230769 -7.3125 3.625 C-7.869375 3.41875 -8.42625 3.2125 -9 3 C-8.34 3 -7.68 3 -7 3 C-7 2.34 -7 1.68 -7 1 C-4.53721199 -0.231394 -2.7204945 -0.07159196 0 0 Z " fill="#0E753D" transform="translate(25,113)"/>
<path d="M0 0 C0.66 0 1.32 0 2 0 C2 1.98 2 3.96 2 6 C0.68 6 -0.64 6 -2 6 C-1.125 1.125 -1.125 1.125 0 0 Z " fill="#0E7040" transform="translate(106,105)"/>
<path d="M0 0 C0.99 0.33 1.98 0.66 3 1 C3.33 1.99 3.66 2.98 4 4 C3.01 4 2.02 4 1 4 C1 6.64 1 9.28 1 12 C0.67 12 0.34 12 0 12 C0 8.04 0 4.08 0 0 Z " fill="#CDF6E2" transform="translate(72,101)"/>
<path d="M0 0 C0.33 0.99 0.66 1.98 1 3 C1.99 3.33 2.98 3.66 4 4 C3.01 5.485 3.01 5.485 2 7 C-0.475 6.01 -0.475 6.01 -3 5 C-2.34 4.67 -1.68 4.34 -1 4 C-0.34786708 1.97536745 -0.34786708 1.97536745 0 0 Z " fill="#CDF2DF" transform="translate(79,80)"/>
<path d="M0 0 C2.475 0.99 2.475 0.99 5 2 C3.68 3.32 2.36 4.64 1 6 C0.67 5.34 0.34 4.68 0 4 C-0.66 3.67 -1.32 3.34 -2 3 C-1.34 2.01 -0.68 1.02 0 0 Z " fill="#CAEAD7" transform="translate(61,67)"/>
<path d="M0 0 C0.99 0.495 0.99 0.495 2 1 C1.01 1.495 1.01 1.495 0 2 C0 1.34 0 0.68 0 0 Z M-2 2 C-1.34 2 -0.68 2 0 2 C-0.33 4.97 -0.66 7.94 -1 11 C-1.99 10.67 -2.98 10.34 -4 10 C-3.125 3.125 -3.125 3.125 -2 2 Z " fill="#D9D9D9" transform="translate(269,65)"/>
<path d="M0 0 C1.32 0.33 2.64 0.66 4 1 C4 2.32 4 3.64 4 5 C1.03 4.67 -1.94 4.34 -5 4 C-5 3.67 -5 3.34 -5 3 C-3.02 3 -1.04 3 1 3 C0.67 2.01 0.34 1.02 0 0 Z " fill="#A9DCC1" transform="translate(153,64)"/>
<path d="M0 0 C4.875 4.75 4.875 4.75 6 7 C3.525 6.01 3.525 6.01 1 5 C0.67 5.99 0.34 6.98 0 8 C0 5.36 0 2.72 0 0 Z " fill="#2D6F4C" transform="translate(43,105)"/>
<path d="M0 0 C1.98 0.495 1.98 0.495 4 1 C3.34 1 2.68 1 2 1 C2 3.31 2 5.62 2 8 C0.4375 6.8125 0.4375 6.8125 -1 5 C-0.6875 2.3125 -0.6875 2.3125 0 0 Z " fill="#0F6339" transform="translate(78,100)"/>
<path d="M0 0 C0 2.31 0 4.62 0 7 C-1.9375 6.6875 -1.9375 6.6875 -4 6 C-4.33 5.01 -4.66 4.02 -5 3 C-2.25 0 -2.25 0 0 0 Z " fill="#0F743E" transform="translate(140,67)"/>
<path d="M0 0 C-0.66 2.31 -1.32 4.62 -2 7 C-2.99 6.34 -3.98 5.68 -5 5 C-4.625 3.0625 -4.625 3.0625 -4 1 C-2 0 -2 0 0 0 Z " fill="#CFCECF" transform="translate(214,109)"/>
<path d="M0 0 C3.125 -0.1875 3.125 -0.1875 6 0 C5.67 0.99 5.34 1.98 5 3 C2.69 3 0.38 3 -2 3 C-1.34 2.01 -0.68 1.02 0 0 Z " fill="#AADDBE" transform="translate(104,101)"/>
<path d="M0 0 C1.32 0 2.64 0 4 0 C4 0.66 4 1.32 4 2 C5.98 2 7.96 2 10 2 C10 2.33 10 2.66 10 3 C6.7 3 3.4 3 0 3 C0 2.01 0 1.02 0 0 Z " fill="#2F2F2F" transform="translate(249,97)"/>
<path d="M0 0 C0.66 0.99 1.32 1.98 2 3 C-1.465 4.485 -1.465 4.485 -5 6 C-5 5.01 -5 4.02 -5 3 C-2.5 1.3125 -2.5 1.3125 0 0 Z " fill="#0C0C0C" transform="translate(207,81)"/>
<path d="M0 0 C0.99 0.33 1.98 0.66 3 1 C2.67 2.32 2.34 3.64 2 5 C1.67 4.67 1.34 4.34 1 4 C0.67 4.99 0.34 5.98 0 7 C-0.66 7 -1.32 7 -2 7 C-1.125 2.25 -1.125 2.25 0 0 Z " fill="#151515" transform="translate(261,72)"/>
<path d="M0 0 C0.66 1.32 1.32 2.64 2 4 C-1.63 3.67 -5.26 3.34 -9 3 C-9 2.67 -9 2.34 -9 2 C-6.94921875 1.77213542 -4.8984375 1.54427083 -2.84765625 1.31640625 C-0.98859771 1.18113386 -0.98859771 1.18113386 0 0 Z " fill="#117242" transform="translate(306,22)"/>
<path d="M0 0 C0.33 0 0.66 0 1 0 C1 3.63 1 7.26 1 11 C0.34 11 -0.32 11 -1 11 C-1.33 9.68 -1.66 8.36 -2 7 C-1.34 7 -0.68 7 0 7 C0 4.69 0 2.38 0 0 Z " fill="#D7FBE9" transform="translate(50,102)"/>
<path d="M0 0 C0.99 0.33 1.98 0.66 3 1 C2.360625 1.45375 1.72125 1.9075 1.0625 2.375 C-1.09702406 3.83921726 -1.09702406 3.83921726 -2 6 C-2.66 6 -3.32 6 -4 6 C-4.33 5.01 -4.66 4.02 -5 3 C-2.6875 1.4375 -2.6875 1.4375 0 0 Z " fill="#E8E7E7" transform="translate(268,94)"/>
<path d="M0 0 C0.66 0.33 1.32 0.66 2 1 C1.38125 1.2475 0.7625 1.495 0.125 1.75 C-2.35068687 3.20628639 -2.95125002 4.37812506 -4 7 C-4.33 6.34 -4.66 5.68 -5 5 C-4.25 2.9375 -4.25 2.9375 -3 1 C-2.01 0.67 -1.02 0.34 0 0 Z " fill="#6D6D6D" transform="translate(213,86)"/>
<path d="M0 0 C-0.33 0.66 -0.66 1.32 -1 2 C-3.97 1.67 -6.94 1.34 -10 1 C-10 0.67 -10 0.34 -10 0 C-6.33694766 -0.74926071 -3.57644848 -1.2380014 0 0 Z " fill="#F2FAF0" transform="translate(155,87)"/>
<path d="M0 0 C0.33 0 0.66 0 1 0 C1 2.64 1 5.28 1 8 C0.01 7.67 -0.98 7.34 -2 7 C-2 5.68 -2 4.36 -2 3 C-1.34 3 -0.68 3 0 3 C0 2.01 0 1.02 0 0 Z " fill="#CECECE" transform="translate(188,80)"/>
<path d="M0 0 C3.375 0.3125 3.375 0.3125 7 1 C7.66 1.99 8.32 2.98 9 4 C6.525 3.01 6.525 3.01 4 2 C3.67 2.66 3.34 3.32 3 4 C3 3.34 3 2.68 3 2 C2.01 1.67 1.02 1.34 0 1 C0 0.67 0 0.34 0 0 Z " fill="#535353" transform="translate(195,73)"/>
<path d="M0 0 C0.99 0.33 1.98 0.66 3 1 C3 1.66 3 2.32 3 3 C1 5 1 5 -1 6 C-1.625 4.125 -1.625 4.125 -2 2 C-1.34 1.34 -0.68 0.68 0 0 Z " fill="#212121" transform="translate(266,64)"/>
</svg>
